<svg width="52" height="52" viewBox="0 0 52 52" fill="none" xmlns="http://www.w3.org/2000/svg">
<rect width="52" height="52" rx="12" fill="#CFDDDB"/>
<g clip-path="url(#clip0_529_5610)">
<path d="M28 21V14.46C28.9251 14.8093 29.7653 15.3513 30.465 16.05L33.949 19.536C34.6485 20.2349 35.1909 21.0749 35.54 22H29C28.7348 22 28.4804 21.8946 28.2929 21.7071C28.1054 21.5196 28 21.2652 28 21ZM36 24.485V33C35.9984 34.3256 35.4711 35.5964 34.5338 36.5338C33.5964 37.4711 32.3256 37.9984 31 38H21C19.6744 37.9984 18.4036 37.4711 17.4662 36.5338C16.5289 35.5964 16.0016 34.3256 16 33V19C16.0016 17.6744 16.5289 16.4036 17.4662 15.4662C18.4036 14.5289 19.6744 14.0016 21 14H25.515C25.678 14 25.839 14.013 26 14.024V21C26 21.7956 26.3161 22.5587 26.8787 23.1213C27.4413 23.6839 28.2044 24 29 24H35.976C35.987 24.161 36 24.322 36 24.485ZM28 33C28 32.7348 27.8946 32.4804 27.7071 32.2929C27.5196 32.1054 27.2652 32 27 32H22C21.7348 32 21.4804 32.1054 21.2929 32.2929C21.1054 32.4804 21 32.7348 21 33C21 33.2652 21.1054 33.5196 21.2929 33.7071C21.4804 33.8946 21.7348 34 22 34H27C27.2652 34 27.5196 33.8946 27.7071 33.7071C27.8946 33.5196 28 33.2652 28 33ZM31 29C31 28.7348 30.8946 28.4804 30.7071 28.2929C30.5196 28.1054 30.2652 28 30 28H22C21.7348 28 21.4804 28.1054 21.2929 28.2929C21.1054 28.4804 21 28.7348 21 29C21 29.2652 21.1054 29.5196 21.2929 29.7071C21.4804 29.8946 21.7348 30 22 30H30C30.2652 30 30.5196 29.8946 30.7071 29.7071C30.8946 29.5196 31 29.2652 31 29Z" fill="#161B32"/>
</g>
<defs>
<clipPath id="clip0_529_5610">
<rect width="24" height="24" fill="white" transform="translate(14 14)"/>
</clipPath>
</defs>
</svg>
