<svg width="209" height="191" viewBox="0 0 209 191" fill="none" xmlns="http://www.w3.org/2000/svg">
<path d="M206.235 89.9087L206.235 89.9089L172.121 158.825L171.633 158.718C171.633 158.718 171.633 158.718 171.633 158.718C169.074 170.365 156.432 180.171 139.175 185.716C121.958 191.248 100.318 192.474 80.0667 187.099C59.8173 181.679 40.8203 169.586 26.5406 154.927C12.2535 140.26 2.73916 123.078 1.36441 107.51L1.36435 107.51C-1.42396 76.4434 26.6485 30.1687 109.255 30.1687C137.015 30.1687 158.637 35.2298 174.622 45.2119C190.593 55.1855 200.982 70.1001 206.235 89.9087Z" stroke="white"/>
<path d="M106.751 174.411C157.508 174.411 186.051 153.174 195.701 111.519C205.352 69.8647 168.934 64.2135 164.109 39.2846C159.375 14.2646 117.176 -2.18755 80.0295 9.16033C42.8834 20.5082 10.3805 59.9752 7.83123 92.8795C5.23647 125.784 31.1841 174.411 106.751 174.411Z" fill="#F7F7F7"/>
<mask id="mask0_952_5836" style="mask-type:luminance" maskUnits="userSpaceOnUse" x="7" y="5" width="191" height="170">
<path d="M106.751 174.411C157.508 174.411 186.051 153.174 195.701 111.519C205.352 69.8647 168.934 64.2135 164.109 39.2846C159.375 14.2646 117.176 -2.18755 80.0295 9.16033C42.8834 20.5082 10.3805 59.9752 7.83123 92.8795C5.23647 125.784 31.1841 174.411 106.751 174.411Z" fill="white"/>
</mask>
<g mask="url(#mask0_952_5836)">
<g opacity="0.64">
<path d="M4.23503 93.6543H11.8372V104.455H19.1208V82.5343H26.723V95.4772H38.8774V77.9769L46.0244 70.8218H55.9028V84.3572H65.3259V70.8218H156.552V80.529H165.976V72.508H175.99V86.2257H184.822V101.447L189.374 106.005V112.704H202.12C202.12 112.704 240.404 165.068 173.259 170.856C106.068 176.644 63.8236 178.148 55.9028 177.875C47.9819 177.556 23.673 168.122 23.673 168.122L7.6492 155.908C7.6492 155.908 1.18505 145.563 -0.635844 142.828C-2.45673 140.094 3.32459 92.2871 3.32459 92.2871" fill="#E2E2E2"/>
</g>
</g>
<mask id="mask1_952_5836" style="mask-type:luminance" maskUnits="userSpaceOnUse" x="7" y="5" width="191" height="170">
<path d="M106.751 174.411C157.508 174.411 186.051 153.174 195.701 111.519C205.352 69.8647 168.934 64.2135 164.109 39.2846C159.375 14.2646 117.176 -2.18755 80.0295 9.16033C42.8834 20.5082 10.3805 59.9752 7.83123 92.8795C5.23647 125.784 31.1841 174.411 106.751 174.411Z" fill="white"/>
</mask>
<g mask="url(#mask1_952_5836)">
<path d="M149.678 151.579H64.2787C61.2742 151.579 58.8616 149.163 58.8616 146.155V96.571C58.8616 93.5631 61.2742 91.1477 64.2787 91.1477H149.678C152.683 91.1477 155.096 93.5631 155.096 96.571V146.155C155.141 149.163 152.683 151.579 149.678 151.579Z" fill="#262F38"/>
<path d="M155.141 151.579H58.8616L47.8907 157.093H166.066L155.141 151.579Z" fill="#262F38"/>
<path d="M53.6721 155.726L59.1803 152.946H154.823L160.331 155.726H53.6721Z" fill="#999999"/>
<path d="M161.378 162.243H52.5795C49.9848 162.243 47.8907 160.147 47.8907 157.549V157.139H166.066V157.549C166.066 160.101 163.972 162.243 161.378 162.243Z" fill="#1E262D"/>
<path d="M150.361 96.252H63.6415V146.474H150.361V96.252Z" fill="#2C868F"/>
<path d="M69.3772 149.756V65.3984C69.3772 62.8919 71.4257 60.8411 73.9294 60.8411H139.572C142.076 60.8411 144.125 62.8919 144.125 65.3984V149.756C144.125 152.262 142.076 154.313 139.572 154.313H73.9294C71.4257 154.313 69.3772 152.262 69.3772 149.756Z" fill="#BABABA"/>
<path d="M141.439 63.5754H72.1085V151.579H141.439V63.5754Z" fill="#DADADA"/>
<path d="M124.277 81.4861H89.7256V84.2661H124.277V81.4861Z" fill="#999999"/>
<path d="M124.277 98.3027H89.7256V101.083H124.277V98.3027Z" fill="#999999"/>
<path d="M124.277 115.165H89.7256V117.945H124.277V115.165Z" fill="#999999"/>
<path d="M124.277 131.982H89.7256V134.762H124.277V131.982Z" fill="#999999"/>
<path d="M81.6682 87.7296C84.3584 87.7296 86.5391 85.5464 86.5391 82.8532C86.5391 80.16 84.3584 77.9768 81.6682 77.9768C78.9781 77.9768 76.7974 80.16 76.7974 82.8532C76.7974 85.5464 78.9781 87.7296 81.6682 87.7296Z" fill="#39AB68"/>
<path d="M81.304 85.0408C81.0309 85.0408 80.8033 84.9497 80.6212 84.7218L78.9824 82.8533C78.8003 82.671 78.8458 82.3975 79.0279 82.2152C79.21 82.0329 79.4831 82.0785 79.6652 82.2608L81.304 84.1293L84.2174 80.9392C84.3995 80.7569 84.6727 80.7569 84.8547 80.8936C85.0368 81.0759 85.0368 81.3493 84.9003 81.5316L81.9868 84.7218C81.8048 84.9041 81.5771 85.0408 81.304 85.0408Z" fill="white"/>
<path d="M85.121 103.126C87.0232 101.222 87.0232 98.1342 85.121 96.2299C83.2189 94.3255 80.1348 94.3255 78.2327 96.2299C76.3305 98.1342 76.3305 101.222 78.2326 103.126C80.1348 105.03 83.2189 105.03 85.121 103.126Z" fill="#39AB68"/>
<path d="M81.304 101.857C81.0309 101.857 80.8033 101.766 80.6212 101.538L78.9824 99.6699C78.8003 99.4876 78.8458 99.2142 79.0279 99.0319C79.21 98.8496 79.4831 98.8952 79.6652 99.0775L81.304 100.946L84.2174 97.7558C84.3995 97.5735 84.6727 97.5735 84.8547 97.7102C85.0368 97.8925 85.0368 98.166 84.9003 98.3483L81.9868 101.538C81.8048 101.721 81.5771 101.857 81.304 101.857Z" fill="white"/>
<path d="M81.6682 121.363C84.3584 121.363 86.5391 119.18 86.5391 116.487C86.5391 113.794 84.3584 111.61 81.6682 111.61C78.9781 111.61 76.7974 113.794 76.7974 116.487C76.7974 119.18 78.9781 121.363 81.6682 121.363Z" fill="#39AB68"/>
<path d="M81.304 118.674C81.0309 118.674 80.8033 118.583 80.6212 118.355L78.9824 116.487C78.8003 116.305 78.8458 116.031 79.0279 115.849C79.21 115.666 79.4831 115.712 79.6652 115.894L81.304 117.763L84.2174 114.573C84.3995 114.39 84.6727 114.39 84.8547 114.527C85.0368 114.709 85.0368 114.983 84.9003 115.165L81.9868 118.355C81.8048 118.538 81.5771 118.674 81.304 118.674Z" fill="white"/>
<path d="M86.4356 134.434C87.0538 131.813 85.4326 129.187 82.8146 128.568C80.1966 127.949 77.5731 129.572 76.9549 132.193C76.3367 134.814 77.9579 137.44 80.5759 138.059C83.1939 138.678 85.8174 137.055 86.4356 134.434Z" fill="#39AB68"/>
<path d="M81.3041 135.446C81.031 135.446 80.8034 135.354 80.6213 135.127L78.9825 133.258C78.8004 133.076 78.8459 132.802 79.028 132.62C79.2101 132.438 79.4832 132.483 79.6653 132.666L81.3041 134.534L84.2176 131.344C84.3996 131.162 84.6728 131.162 84.8549 131.298C85.037 131.481 85.037 131.754 84.9004 131.936L81.987 135.127C81.8049 135.354 81.5773 135.446 81.3041 135.446Z" fill="white"/>
<path d="M147.858 116.714L143.305 112.841L137.979 116.714V86.9092H147.858V116.714Z" fill="#F74D57"/>
<path d="M145.081 73.1004C145.809 68.6342 140.028 68.6342 140.711 73.1004C139.982 68.6342 134.52 70.4116 136.568 74.4676C134.52 70.4116 129.831 73.8296 133.063 77.0198C129.876 73.8296 126.462 78.4781 130.514 80.5289C126.462 78.4781 124.687 83.947 129.148 84.6762C124.687 83.947 124.687 89.7349 129.148 89.0513C124.687 89.7804 126.462 95.2493 130.514 93.1985C126.462 95.2493 129.876 99.9434 133.063 96.7077C129.876 99.8978 134.52 103.316 136.568 99.2598C134.52 103.316 139.982 105.093 140.711 100.627C139.982 105.093 145.763 105.093 145.081 100.627C145.809 105.093 151.272 103.316 149.223 99.2598C151.272 103.316 155.96 99.8978 152.728 96.7077C155.915 99.8978 159.329 95.2493 155.278 93.1985C159.329 95.2493 161.104 89.7804 156.643 89.0513C161.104 89.7804 161.104 83.9926 156.643 84.6762C161.104 83.947 159.329 78.4781 155.278 80.5289C159.329 78.4781 155.915 73.784 152.728 77.0198C155.915 73.8296 151.272 70.4116 149.223 74.4676C151.272 70.4116 145.809 68.6342 145.081 73.1004Z" fill="#CC3644"/>
<path d="M142.896 99.8978C150.086 99.8978 155.915 94.0623 155.915 86.8637C155.915 79.6652 150.086 73.8296 142.896 73.8296C135.705 73.8296 129.876 79.6652 129.876 86.8637C129.876 94.0623 135.705 99.8978 142.896 99.8978Z" fill="#F74D57"/>
<path d="M139.891 81.6684C139.891 81.8507 139.755 81.9874 139.573 81.9874C139.39 81.9874 139.254 81.8507 139.254 81.6684C139.254 81.4861 139.39 81.3494 139.573 81.3494C139.755 81.3494 139.891 81.4861 139.891 81.6684ZM139.299 85.4054V82.4887H139.846V85.4054H139.299Z" fill="white"/>
<path d="M141.257 84.8584C141.393 84.9496 141.712 85.0863 141.94 85.0863C142.304 85.0863 142.486 84.904 142.486 84.6306C142.486 84.3571 142.349 84.2204 141.94 84.0837C141.393 83.9014 141.166 83.628 141.166 83.2634C141.166 82.8076 141.53 82.3975 142.167 82.3975C142.44 82.3975 142.714 82.4886 142.896 82.5798L142.759 82.9443C142.622 82.8532 142.44 82.7621 142.167 82.7621C141.849 82.7621 141.666 82.9443 141.666 83.1722C141.666 83.4001 141.849 83.5368 142.213 83.6735C142.714 83.8558 142.987 84.1293 142.987 84.5394C142.987 85.0407 142.577 85.4053 141.894 85.4053C141.575 85.4053 141.257 85.3142 141.075 85.223L141.257 84.8584Z" fill="white"/>
<path d="M146.947 83.9471C146.947 85.0408 146.219 85.4966 145.49 85.4966C144.717 85.4966 144.079 84.9041 144.079 83.9926C144.079 83.0356 144.717 82.4431 145.536 82.4431C146.355 82.4431 146.947 83.0356 146.947 83.9471ZM144.625 83.9471C144.625 84.5851 144.99 85.0864 145.49 85.0864C145.991 85.0864 146.355 84.6307 146.355 83.9471C146.355 83.4457 146.128 82.8077 145.49 82.8077C144.899 82.8077 144.625 83.4002 144.625 83.9471Z" fill="white"/>
<path d="M136.523 92.2871C136.659 92.2871 136.75 92.2871 136.932 92.2871C137.251 92.2415 137.524 92.1048 137.752 91.9225C138.025 91.6946 138.207 91.33 138.252 90.8743C138.025 91.1477 137.706 91.2845 137.342 91.2845C136.659 91.2845 136.204 90.7376 136.204 90.0996C136.204 89.3704 136.75 88.6868 137.524 88.6868C138.298 88.6868 138.799 89.3248 138.799 90.3274C138.799 91.1933 138.525 91.7858 138.116 92.1504C137.797 92.4238 137.387 92.6061 136.978 92.6973C136.796 92.7428 136.614 92.7428 136.477 92.7428V92.2871H136.523ZM136.705 90.0084C136.705 90.5097 136.978 90.8287 137.478 90.8287C137.843 90.8287 138.116 90.6464 138.252 90.4186C138.298 90.373 138.298 90.3274 138.298 90.2363C138.298 89.5527 138.07 89.0514 137.478 89.0514C137.023 89.0514 136.705 89.4615 136.705 90.0084Z" fill="white"/>
<path d="M141.029 89.2337L140.346 89.5983L140.255 89.1882L141.12 88.7324H141.576V92.6518H141.029V89.2337Z" fill="white"/>
<path d="M146.173 90.6464C146.173 91.968 145.672 92.6972 144.808 92.6972C144.034 92.6972 143.533 91.968 143.533 90.6919C143.533 89.3703 144.079 88.6411 144.899 88.6411C145.718 88.6867 146.173 89.4159 146.173 90.6464ZM144.079 90.6919C144.079 91.6946 144.398 92.287 144.853 92.287C145.399 92.287 145.673 91.649 145.673 90.6464C145.673 89.6893 145.445 89.0513 144.899 89.0513C144.398 89.0968 144.079 89.6437 144.079 90.6919Z" fill="white"/>
<path d="M149.906 90.6464C149.906 91.968 149.405 92.6972 148.54 92.6972C147.766 92.6972 147.266 91.968 147.266 90.6919C147.266 89.3703 147.812 88.6411 148.631 88.6411C149.405 88.6867 149.906 89.4159 149.906 90.6464ZM147.766 90.6919C147.766 91.6946 148.085 92.287 148.54 92.287C149.087 92.287 149.36 91.649 149.36 90.6464C149.36 89.6893 149.132 89.0513 148.586 89.0513C148.085 89.0968 147.766 89.6437 147.766 90.6919Z" fill="white"/>
<path d="M112.259 59.0637C112.259 55.0988 109.027 51.863 105.067 51.863C101.106 51.863 97.8742 55.0988 97.8742 59.0637H89.6346V66.4467H120.453V59.0637H112.259ZM105.067 62.7552C103.018 62.7552 101.379 61.1145 101.379 59.0637C101.379 57.0129 103.018 55.3722 105.067 55.3722C107.115 55.3722 108.754 57.0129 108.754 59.0637C108.754 61.1145 107.115 62.7552 105.067 62.7552Z" fill="#2C868F"/>
<path d="M47.6632 45.0725C50.2125 44.9358 52.7617 44.4345 54.5371 42.7938C55.493 41.8823 56.449 41.1076 56.449 39.8315C56.449 37.5528 56.6766 35.183 56.8587 33.7702C56.9497 32.9954 57.8147 32.5397 58.4975 32.9498C59.1803 33.36 59.9087 34.1803 60.1818 35.7754C60.3184 36.6869 59.8632 42.1102 59.8632 42.1102C59.8632 42.1102 68.74 41.7456 69.3318 43.4318C69.9236 45.1636 66.646 45.8017 66.646 45.8017C66.646 45.8017 67.2833 51.225 65.8266 53.1846C62.8676 57.104 54.1274 55.9191 47.7087 55.8279V45.0725H47.6632Z" fill="#E2E2E2"/>
<path d="M51.3049 43.7053H46.8893V57.104H51.3049V43.7053Z" fill="#2C868F"/>
<path d="M50.1214 54.7797C50.1214 55.3266 49.6662 55.7823 49.1199 55.7823C48.5736 55.7823 48.1184 55.3266 48.1184 54.7797C48.1184 54.2328 48.5736 53.7771 49.1199 53.7771C49.6662 53.7771 50.1214 54.2328 50.1214 54.7797Z" fill="#E2E2E2"/>
<path d="M74.2026 113.388C75.3407 111.61 76.6608 108.284 76.6153 105.64C76.5243 102.997 81.3041 102.359 82.6242 100.901C83.9444 99.4878 85.128 98.5763 85.7653 99.3511C86.4026 100.08 83.3071 103.681 82.0325 104.136C82.0325 104.136 84.4451 108.557 84.8093 110.106C85.1735 111.656 83.216 114.618 82.4877 114.709C81.7593 114.801 82.1235 113.251 82.1235 113.251C82.1235 113.251 79.2101 117.626 77.025 117.444C74.8399 117.307 74.2026 113.388 74.2026 113.388Z" fill="#F3B8A5"/>
<path d="M74.9765 111.975C77.6623 113.889 80.8488 114.892 80.8488 114.892C80.8488 114.892 79.6653 116.441 78.7548 116.943C77.8444 117.398 74.6123 112.887 74.6123 112.887L74.9765 111.975Z" fill="#DD938A"/>
<path d="M42.2914 115.165L41.1078 118.811L35.7817 116.532L38.331 108.238L42.2914 115.165Z" fill="#F3B8A5"/>
<path d="M41.9273 116.259C38.9684 115.256 36.7378 113.251 36.7378 113.251L38.4676 108.83L42.5646 114.481L41.9273 116.259Z" fill="#DD938A"/>
<path d="M49.666 102.086C49.6205 105.185 52.8981 109.879 52.8981 109.879L50.2578 110.79L49.3474 116.851C49.3474 116.851 42.2914 116.213 39.1504 112.75C36.0094 109.286 38.6952 102.131 38.6952 102.131C38.6952 102.131 40.7437 99.5334 41.3355 99.4879C41.9273 99.4423 48.3459 100.035 48.3459 100.035L49.666 102.086Z" fill="#F3B8A5"/>
<path d="M52.4429 101.083C49.484 102.313 41.5631 102.541 41.5631 102.541L40.4706 109.377L36.7377 113.206C31.9124 109.195 29.8639 105.64 29.8184 102.359C29.8184 101.447 29.9094 100.536 30.0915 99.7157C30.7743 96.7078 32.7318 94.2924 36.1459 92.8796C40.5161 91.0566 45.5235 92.4238 47.2534 92.8796C48.9832 93.3809 46.8437 89.6894 44.8862 90.1907C42.8832 90.692 47.4355 86.5448 51.9422 90.1451C53.8541 91.6491 54.719 93.6088 54.9466 95.4773C55.2198 97.9838 54.1272 100.354 52.4429 101.083Z" fill="#262F38"/>
<g opacity="0.72">
<path d="M52.4429 101.083C49.484 102.313 41.5631 102.541 41.5631 102.541L40.4706 109.377L36.7377 113.206C31.9124 109.195 29.8639 105.64 29.8184 102.359C29.8184 101.447 29.9094 100.536 30.0915 99.7157C29.3176 104.774 34.4161 106.962 34.2795 104.546C34.143 102.131 35.9639 98.8042 41.8362 99.6701C47.7086 100.536 49.8481 99.4878 49.8481 99.4878C49.8481 99.4878 46.6161 99.0776 48.3004 97.7104C49.8937 96.4343 52.625 98.9865 54.9466 95.4773C55.2198 97.9839 54.1272 100.354 52.4429 101.083Z" fill="#191E23"/>
</g>
<path d="M41.2445 107.372C40.7893 103.726 38.6952 103.179 37.6937 104.592C36.6467 106.005 37.3751 111.793 40.6072 110.562C43.8392 109.286 41.2445 107.372 41.2445 107.372Z" fill="#F3B8A5"/>
<path d="M48.8012 111.747C47.5721 111.747 46.7072 110.881 46.7072 110.881C46.7072 110.881 46.7527 113.114 48.2549 113.206L48.8012 111.747Z" fill="white"/>
<path d="M48.3459 104.82C48.4825 105.412 48.8012 105.823 49.0288 105.777C49.3019 105.731 49.393 105.185 49.2564 104.638C49.1198 104.091 48.8012 103.635 48.5736 103.681C48.3004 103.726 48.2094 104.228 48.3459 104.82Z" fill="#262F38"/>
<path d="M40.0609 107.6C39.4236 105.367 38.6952 105.823 38.4676 107.327C38.2855 108.83 39.6967 109.286 39.6967 109.286L40.0609 107.6Z" fill="#DD938A"/>
<path d="M78.8004 116.897C78.8004 116.897 76.1145 123.369 73.0646 130.296C70.0146 137.223 66.6459 144.652 65.1437 146.611C62.5944 150.029 54.9012 145.198 48.0273 140.368C47.0714 139.684 46.1154 139 45.2049 138.362C44.6587 137.998 44.1579 137.588 43.6572 137.177C37.0565 132.028 32.4132 125.875 32.4132 125.875L31.9125 120.589L31.8214 119.631C32.1401 119.586 32.4587 119.586 32.7774 119.54C37.5117 119.085 40.1975 118.993 40.5617 119.631C40.9714 120.315 41.9729 122.411 41.9729 122.411C41.9729 122.411 42.5647 122.822 43.4751 123.551C46.8437 126.057 54.8557 132.119 56.9042 134.534L74.3847 112.659L78.8004 116.897Z" fill="#2C868F"/>
<path d="M43.5206 123.551C43.5206 124.326 43.7027 130.205 43.6572 137.177C43.6116 142.92 43.4296 149.391 42.9288 154.268C42.7467 156.136 42.4736 157.777 42.1549 159.053C39.9699 168.076 13.9312 149.346 13.9312 149.346C13.9312 149.346 14.614 147.431 15.752 144.56C18.6199 137.496 24.4013 124.599 30.8199 118.857C30.8199 118.857 33.4602 115.12 34.3706 115.256C35.6453 115.393 37.3296 115.803 38.9684 116.305C41.7452 117.17 44.2945 118.31 44.431 118.857C44.6131 119.723 43.5661 123.505 43.5661 123.505C43.5661 123.505 43.5206 123.505 43.5206 123.551Z" fill="#2C868F"/>
<path d="M43.6572 137.177C43.6117 142.92 43.4296 149.391 42.9289 154.268C42.7012 154.313 42.5192 160.42 42.5192 160.42C42.5192 160.42 31.958 152.718 27.9065 150.85C23.9006 148.981 17.8461 146.155 15.7976 144.56C18.6655 137.496 24.4468 124.599 30.8655 118.857C30.8655 118.857 33.5058 115.12 34.4162 115.256C35.6908 115.393 37.3751 115.803 39.0139 116.305C39.6513 118.128 34.4162 115.256 33.7334 117.991C33.5968 118.492 33.3237 119.039 32.914 119.586C32.6408 119.95 32.3677 120.269 32.049 120.634C30.0916 122.867 26.9506 125.419 25.0386 128.427C22.3528 132.757 23.8095 136.767 29.9095 141.598C35.964 146.429 41.0169 144.834 40.152 140.641C39.2871 136.494 33.6423 132.164 34.052 130.341C34.3707 128.473 36.5102 131.754 43.6572 137.177Z" fill="#2C868F"/>
<path d="M73.0645 130.341C70.0145 137.269 66.6459 144.697 65.1436 146.657C62.5944 150.075 54.9011 145.244 48.0273 140.413C45.1138 137.405 43.7027 135.491 46.6616 137.132C50.6676 139.365 52.7616 143.603 60.7735 143.877C68.7854 144.105 68.1936 138.909 73.0645 130.341Z" fill="#2C868F"/>
<path d="M174.534 122.958C173.35 125.328 162.789 131.435 163.972 127.607C164.155 126.969 164.246 126.422 164.2 125.921C163.972 123.323 160.831 121.91 156.507 117.398C155.961 116.806 155.46 116.168 155.05 115.393C155.05 115.393 155.05 115.393 155.05 115.348C151.499 109.149 152.182 98.0294 157.372 95.2039C157.372 95.2039 169.799 97.3458 171.393 98.4396C172.986 99.4878 174.898 106.78 174.898 106.78C174.898 106.78 175.717 120.588 174.534 122.958Z" fill="#F7B313"/>
<path d="M170.072 119.403C170.072 119.403 165.93 124.371 165.566 125.374C165.475 125.693 164.883 125.829 164.154 125.92C163.927 123.323 160.786 121.91 156.461 117.398C155.915 116.806 155.414 116.168 155.005 115.393C156.598 118.082 162.288 121.956 162.652 120.725C163.016 119.449 159.966 119.039 160.24 118.173C160.513 117.307 164.428 118.219 160.24 115.53C156.052 112.841 153.275 101.812 156.325 97.7559L163.426 100.08L169.799 110.38L170.072 119.403Z" fill="#F47E14"/>
<path d="M164.337 112.522L166.067 117.763L171.393 115.484L168.843 107.235L164.337 112.522Z" fill="#F3B8A5"/>
<path d="M169.344 108.648C169.071 111.291 165.293 115.302 165.293 115.302L164.655 113.297L167.66 108.648L168.798 106.871L169.344 108.648Z" fill="#DD938A"/>
<path d="M157.463 101.037C157.508 104.136 154.231 108.83 154.231 108.83L156.871 109.742L157.872 116.304C157.872 116.304 164.291 114.436 167.387 110.972C170.528 107.509 168.434 101.037 168.434 101.037C168.434 101.037 166.385 98.4394 165.793 98.3939C165.202 98.3483 158.783 98.9407 158.783 98.9407L157.463 101.037Z" fill="#F3B8A5"/>
<path d="M158.828 103.772C158.692 104.364 158.373 104.774 158.146 104.729C157.872 104.683 157.781 104.136 157.918 103.589C158.055 102.997 158.373 102.587 158.601 102.632C158.874 102.678 158.965 103.179 158.828 103.772Z" fill="#262F38"/>
<path d="M158.783 110.927C160.695 110.106 161.696 108.147 161.696 108.147C161.696 108.147 162.379 111.656 159.42 112.522L158.783 110.927Z" fill="white"/>
<path d="M132.107 128.154C130.286 127.106 127.646 124.69 126.508 122.275C125.415 119.859 120.863 121.409 119.042 120.725C117.221 120.042 115.764 119.768 115.537 120.725C115.264 121.682 119.634 123.505 121.045 123.368C121.045 123.368 120.863 128.382 121.227 129.931C121.591 131.481 124.641 133.258 125.324 133.03C126.007 132.757 124.96 131.572 124.96 131.572C124.96 131.572 129.512 134.215 131.379 133.076C133.29 131.936 132.107 128.154 132.107 128.154Z" fill="#F3B8A5"/>
<path d="M130.605 127.151C129.603 130.706 127.373 132.711 127.373 132.711C127.373 132.711 128.329 133.486 130.24 133.212C132.152 132.985 131.424 127.835 131.424 127.835" fill="#DD938A"/>
<path d="M175.034 120.634C175.034 120.634 173.396 129.43 169.162 137.542C167.113 141.461 164.746 145.927 162.379 149.209C162.288 149.3 162.243 149.437 162.152 149.528C159.693 152.855 157.19 154.951 155.05 153.857C152.41 152.536 143.578 145.244 137.069 139.729L136.75 139.456C132.699 136.038 129.603 133.349 129.603 133.349L131.515 127.88L157.008 139.365C157.964 135.445 164.974 121.864 164.974 121.864C164.974 121.864 164.928 119.495 164.974 118.72C165.019 117.945 167.796 116.715 172.804 114.801L175.034 120.634Z" fill="#F74D57"/>
<path d="M162.106 149.528C159.648 152.855 157.144 154.951 155.005 153.857C152.364 152.536 143.533 145.244 137.023 139.73L136.705 139.456C136.887 139.547 143.351 143.33 148.677 147.751C153.958 152.126 159.557 152.855 162.106 149.528Z" fill="#CC3644"/>
<path d="M194.746 151.123L177.584 161.195C177.584 161.195 166.658 165.752 166.34 163.565C166.112 162.106 165.338 153.128 164.792 144.879C164.519 140.96 164.337 137.223 164.291 134.489L172.667 114.801C172.667 114.801 174.169 114.39 176.628 117.763C177.037 118.355 177.857 119.677 178.904 121.546C184.048 130.524 194.746 151.123 194.746 151.123Z" fill="#F74D57"/>
<path d="M194.745 151.123L177.584 161.195C177.584 161.195 166.658 165.752 166.34 163.565C166.112 162.106 165.338 153.128 164.792 144.879C168.752 140.14 171.484 133.395 172.713 134.488C173.987 135.582 169.116 145.381 167.159 147.705C165.202 150.029 166.203 154.131 171.393 148.708C176.582 143.284 181.999 139.091 182.272 134.488C182.546 129.886 172.44 132.483 170.437 129.202C168.98 126.832 174.943 123.414 178.995 121.591C184.048 130.524 194.745 151.123 194.745 151.123Z" fill="#CC3644"/>
<path d="M187.28 123.961C183.319 132.027 173.987 130.25 169.981 128.154C167.569 126.878 166.157 124.462 166.112 121.864C166.066 120.133 166.567 118.31 167.751 116.715C170.755 112.75 169.663 104.455 166.476 104.501C166.066 104.501 165.611 104.501 165.11 104.546C161.833 104.592 157.235 104.227 156.279 97.3002C155.915 94.6569 158.874 89.7805 167.022 88.7779C173.168 88.0031 178.722 92.3782 179.769 96.9812C179.86 97.3457 179.905 97.7103 179.951 98.1205C180.269 103.088 175.49 106.688 180.269 107.919C185.095 109.149 191.195 115.894 187.28 123.961Z" fill="#F7B313"/>
<path d="M164.746 105.549C165.202 101.903 167.296 101.356 168.297 102.769C169.344 104.182 168.616 109.97 165.384 108.739C162.152 107.418 164.746 105.549 164.746 105.549Z" fill="#F3B8A5"/>
<path d="M165.611 105.139C165.884 103.726 167.022 103.726 167.159 104.592C167.296 105.458 165.884 107.19 165.884 107.19L165.611 105.139Z" fill="#DD938A"/>
<path d="M187.28 123.961C183.319 132.027 173.987 130.25 169.981 128.154C167.569 126.878 166.157 124.462 166.112 121.864C168.206 125.374 176.491 127.014 177.083 125.875C177.811 124.553 171.21 123.961 172.03 121.545C172.849 119.13 182.363 124.781 184.594 120.315C186.825 115.849 185.686 111.382 181.362 110.289C177.037 109.195 175.08 110.744 175.216 108.101C175.353 105.458 179.632 102.951 179.996 98.0293C180.315 102.997 175.535 106.597 180.315 107.828C185.095 109.149 191.195 115.894 187.28 123.961Z" fill="#F47E14"/>
</g>
<path d="M125.097 48.3084L120.954 50.496L121.728 45.8474L118.359 42.5661L123.048 41.8825L125.097 37.6897L127.191 41.8825L131.834 42.5661L128.465 45.8474L129.285 50.496L125.097 48.3084Z" fill="#F7B313"/>
<path d="M89.2705 48.3084L85.128 50.496L85.9018 45.8474L82.5332 42.5661L87.222 41.8825L89.2705 37.6897L91.3645 41.8825L96.0078 42.5661L92.6391 45.8474L93.4585 50.496L89.2705 48.3084Z" fill="#F7B313"/>
<path d="M106.205 41.1989L103.064 42.8396L103.656 39.3304L101.106 36.8238L104.657 36.3225L106.205 33.1323L107.798 36.3225L111.349 36.8238L108.8 39.3304L109.391 42.8396L106.205 41.1989Z" fill="#F7B313"/>
<path fill-rule="evenodd" clip-rule="evenodd" d="M17.1633 14.9938C18.5745 14.9938 19.8491 15.4495 20.9872 16.1787C22.1708 14.1734 24.3558 12.8518 26.8596 12.8518C30.3193 12.8518 33.1872 15.4495 33.5969 18.7764C34.7804 18.822 35.8275 19.2321 36.7379 19.8702C37.1931 19.779 37.6028 19.6879 38.1036 19.6879C40.1976 19.6879 42.064 20.8272 43.0655 22.4679H38.8319H33.0961H33.0506H27.9521H24.3103H20.5775H9.97083C10.1984 18.3207 13.3395 14.9938 17.1633 14.9938Z" fill="white"/>
<path fill-rule="evenodd" clip-rule="evenodd" d="M177.857 23.8807C179.268 23.8807 180.543 24.3365 181.681 25.0657C182.864 23.0604 185.049 21.7388 187.553 21.7388C191.013 21.7388 193.881 24.3365 194.29 27.6634C195.474 27.7089 196.521 28.1191 197.431 28.7571C197.887 28.666 198.296 28.5748 198.797 28.5748C200.891 28.5748 202.757 29.7142 203.759 31.3549H199.525H193.881H193.835H188.737H185.095H181.362H170.755C170.846 27.2076 173.987 23.8807 177.857 23.8807Z" fill="white"/>
<path d="M27.4969 173.864C29.7847 173.864 31.6394 172.007 31.6394 169.717C31.6394 167.427 29.7847 165.57 27.4969 165.57C25.209 165.57 23.3544 167.427 23.3544 169.717C23.3544 172.007 25.209 173.864 27.4969 173.864Z" fill="white"/>
<path d="M17.3454 44.3434C14.7962 44.3434 12.7477 42.2925 12.7477 39.7404C12.7477 37.1883 14.7962 35.1375 17.3454 35.1375C19.8947 35.1375 21.9432 37.1883 21.9432 39.7404C21.9432 42.2925 19.8491 44.3434 17.3454 44.3434ZM17.3454 36.0489C15.2969 36.0489 13.6581 37.6896 13.6581 39.7404C13.6581 41.7912 15.2969 43.4319 17.3454 43.4319C19.3939 43.4319 21.0327 41.7912 21.0327 39.7404C21.0327 37.6896 19.3484 36.0489 17.3454 36.0489Z" fill="white"/>
<path d="M169.086 -0.00113028L160.311 15.0815L161.098 15.5403L169.873 0.457616L169.086 -0.00113028Z" fill="white"/>
<path d="M44.8516 2.41869L44.194 3.04907L52.8518 12.1015L53.5095 11.4711L44.8516 2.41869Z" fill="white"/>
<path d="M59.4003 0.000339448L58.5995 0.433838L62.3883 7.44902L63.1891 7.01552L59.4003 0.000339448Z" fill="white"/>
</svg>
