<svg width="230" height="200" viewBox="0 0 230 200" fill="none" xmlns="http://www.w3.org/2000/svg">
<g clip-path="url(#clip0_952_17666)">
<path d="M4.24336 75.6766C12.0683 56.5919 29.8595 41.2852 49.5971 34.1187C81.2474 22.5899 116.674 24.849 149.609 27.809C185.581 31.0418 243.042 47.8285 226.496 96.2414C217.932 121.207 192.471 136.865 170.437 148.666C151.828 158.637 134.738 173.788 113.871 178.812C89.7732 184.615 68.2058 176.826 47.8842 164.128C28.6526 152.132 9.42108 135.151 2.4915 112.833C-1.59618 99.7467 -0.428275 87.0495 4.24336 75.6766Z" fill="url(#paint0_radial_952_17666)"/>
<path d="M49.4414 72.8726C49.2468 73.1062 49.0911 73.3789 48.8964 73.6126C44.4194 80.078 45.0812 88.2572 48.5071 95.3068C45.3927 98.968 45.7431 105.239 49.7918 108.939C47.7285 109.757 47.5728 114.742 49.2857 118.715C50.8429 122.337 54.3077 124.791 57.6168 125.102C55.5145 127.011 57.6168 132.464 60.6144 134.177C63.612 135.891 64.9746 135.657 67.7386 136.125C67.7386 136.125 67.9333 140.526 72.9164 142.746C77.043 144.615 80.5467 143.798 82.61 142.902H82.6489C82.7268 142.863 82.8047 142.824 82.8825 142.785C82.9215 142.785 82.9215 142.785 82.9604 142.746C83.0382 142.707 83.0772 142.668 83.155 142.668C83.194 142.668 83.194 142.629 83.2329 142.629C83.3108 142.59 83.3497 142.551 83.4275 142.551C83.4665 142.551 83.4665 142.512 83.5054 142.512C83.5443 142.473 83.6222 142.473 83.6611 142.434C83.7001 142.434 83.7001 142.395 83.739 142.395C83.7779 142.356 83.8168 142.356 83.8947 142.318C83.9336 142.318 83.9336 142.279 83.9726 142.279C84.0115 142.24 84.0504 142.24 84.0894 142.201L84.1283 142.162C84.1672 142.123 84.2062 142.123 84.2451 142.084C84.2451 142.084 84.284 142.084 84.284 142.045C84.3229 142.006 84.3619 142.006 84.3619 141.967C84.3619 141.967 84.4008 141.967 84.4008 141.928C84.4397 141.928 84.4397 141.889 84.4787 141.889C84.4787 141.889 84.5176 141.889 84.5176 141.85C84.5565 141.85 84.5565 141.811 84.5565 141.811C84.5565 141.811 84.5565 141.811 84.5955 141.811L84.6344 141.772C84.6344 141.772 84.6344 141.772 84.6733 141.772C84.6733 141.772 88.4106 135.579 87.1259 130.516C86.0359 126.076 81.8314 125.258 81.8314 125.258C81.8314 125.258 81.8314 125.18 81.8703 125.102C81.9093 124.986 81.9482 124.83 81.9871 124.635C82.0261 124.44 82.1039 124.207 82.1818 123.973C82.4543 122.843 82.8047 121.169 82.7268 120.039C82.7268 119.922 82.6879 119.805 82.6879 119.689C82.2986 117.468 81.1696 115.716 79.846 114.703C78.8338 113.924 77.7048 113.535 76.6537 113.652C76.3033 113.69 75.9529 113.768 75.6415 113.924C75.7972 113.574 75.9529 113.223 76.1087 112.834C76.3812 112.094 76.6148 111.315 76.7315 110.536C76.8873 109.562 76.8873 108.588 76.6537 107.576C76.6147 107.42 76.5758 107.264 76.5369 107.069C76.498 106.952 76.459 106.797 76.4201 106.68C76.1087 105.823 75.6804 104.966 75.0186 104.109C74.1621 102.98 73.111 102.395 72.021 102.279C71.1645 102.201 70.347 102.356 69.5294 102.785C69.6073 99.9417 68.2837 96.3584 66.2593 93.7489C64.8578 91.9573 63.1449 90.633 61.2762 90.2825C60.7312 87.1666 59.5633 84.1676 57.9282 81.4801C55.7092 77.8969 52.8284 74.8979 49.4414 72.8726Z" fill="#328F7B"/>
<path d="M49.4414 72.8726C49.2468 73.1062 49.0911 73.3789 48.8964 73.6126C44.4194 80.078 45.0812 88.2572 48.5071 95.3068C45.3927 98.968 45.7431 105.239 49.7918 108.939C47.7285 109.757 47.5728 114.742 49.2857 118.715C50.8429 122.337 54.3077 124.791 57.6168 125.102C55.5145 127.011 57.6168 132.464 60.6144 134.177C63.612 135.891 64.9746 135.657 67.7386 136.125C67.7386 136.125 67.9333 140.526 72.9164 142.746C77.043 144.615 80.5467 143.798 82.61 142.902H82.6489C82.7268 142.863 82.8047 142.824 82.8825 142.785C82.9215 142.785 82.9215 142.785 82.9604 142.746C83.0382 142.707 83.0772 142.668 83.155 142.668C83.194 142.668 83.194 142.629 83.2329 142.629C83.3108 142.59 83.3497 142.551 83.4275 142.551C83.4665 142.551 83.4665 142.512 83.5054 142.512C83.5443 142.473 83.6222 142.473 83.6611 142.434C83.7001 142.434 83.7001 142.395 83.739 142.395C83.7779 142.356 83.8168 142.356 83.8947 142.318C83.9336 142.318 83.9336 142.279 83.9726 142.279C84.0115 142.24 84.0504 142.24 84.0894 142.201L84.1283 142.162C84.1672 142.123 84.2062 142.123 84.2451 142.084C84.2451 142.084 84.284 142.084 84.284 142.045C84.3229 142.006 84.3619 142.006 84.3619 141.967C84.3619 141.967 84.4008 141.967 84.4008 141.928C84.4397 141.928 84.4397 141.889 84.4787 141.889C84.4787 141.889 84.5176 141.889 84.5176 141.85C84.5565 141.85 84.5565 141.811 84.5565 141.811C84.5565 141.811 84.5565 141.811 84.5955 141.811L84.6344 141.772C84.6344 141.772 84.6344 141.772 84.6733 141.772C84.6733 141.772 88.4106 135.579 87.1259 130.516C86.0359 126.076 81.8314 125.258 81.8314 125.258C81.8314 125.258 81.8314 125.18 81.8703 125.102C81.9093 124.986 81.9482 124.83 81.9871 124.635C82.0261 124.44 82.1039 124.207 82.1818 123.973C82.4543 122.843 82.8047 121.169 82.7268 120.039C82.7268 119.922 82.6879 119.805 82.6879 119.689C82.2986 117.468 81.1696 115.716 79.846 114.703C78.8338 113.924 77.7048 113.535 76.6537 113.652C76.3033 113.69 75.9529 113.768 75.6415 113.924C75.7972 113.574 75.9529 113.223 76.1087 112.834C76.3812 112.094 76.6148 111.315 76.7315 110.536C76.8873 109.562 76.8873 108.588 76.6537 107.576C76.6147 107.42 76.5758 107.264 76.5369 107.069C76.498 106.952 76.459 106.797 76.4201 106.68C76.1087 105.823 75.6804 104.966 75.0186 104.109C74.1621 102.98 73.111 102.395 72.021 102.279C71.1645 102.201 70.347 102.356 69.5294 102.785C69.6073 99.9417 68.2837 96.3584 66.2593 93.7489C64.8578 91.9573 63.1449 90.633 61.2762 90.2825C60.7312 87.1666 59.5633 84.1676 57.9282 81.4801C55.7092 77.8969 52.8284 74.8979 49.4414 72.8726Z" fill="url(#paint1_linear_952_17666)"/>
<path d="M71.2034 157.585C63.8067 130.516 49.0132 106.368 34.2586 99.5912C19.5041 92.8142 26.6672 107.965 37.1005 115.287C47.5339 122.61 34.609 129.971 46.4827 142.318C58.3565 154.625 71.2034 157.585 71.2034 157.585Z" fill="#4FAE86"/>
<path d="M71.2034 157.585C63.8067 130.516 49.0132 106.368 34.2586 99.5912C19.5041 92.8142 26.6672 107.965 37.1005 115.287C47.5339 122.61 34.609 129.971 46.4827 142.318C58.3565 154.625 71.2034 157.585 71.2034 157.585Z" fill="url(#paint2_linear_952_17666)"/>
<path d="M71.2035 157.585C64.5075 151.042 59.2908 142.123 47.0278 129.27C33.7137 115.326 16.0004 115.599 17.4019 125.609C18.8034 135.579 39.67 133.398 35.2319 141.5C30.7939 149.601 37.3731 150.224 46.4828 151.237C55.6314 152.21 71.2035 157.585 71.2035 157.585Z" fill="#4FAE86"/>
<path d="M71.2035 157.585C64.5075 151.042 59.2908 142.123 47.0278 129.27C33.7137 115.326 16.0004 115.599 17.4019 125.609C18.8034 135.579 39.67 133.398 35.2319 141.5C30.7939 149.601 37.3731 150.224 46.4828 151.237C55.6314 152.21 71.2035 157.585 71.2035 157.585Z" fill="url(#paint3_linear_952_17666)"/>
<path d="M83.778 170.555C83.778 170.555 53.5681 166.816 55.1642 97.8774C55.1642 97.8774 100.051 143.837 83.778 170.555Z" fill="#4BAF78"/>
<path d="M83.778 170.555C83.778 170.555 53.5681 166.816 55.1642 97.8774C55.1642 97.8774 100.051 143.837 83.778 170.555Z" fill="url(#paint4_linear_952_17666)"/>
<path d="M128.587 148.627C128.587 148.627 165.454 100.643 199.518 103.058C199.518 103.058 155.487 152.951 128.587 148.627Z" fill="#4FAE86"/>
<path d="M128.587 148.627C128.587 148.627 165.454 100.643 199.518 103.058C199.518 103.058 155.487 152.951 128.587 148.627Z" fill="url(#paint5_linear_952_17666)"/>
<path d="M181.727 83.0769C181.415 83.0769 181.104 83.038 180.831 83.038C172.967 82.9601 166.583 88.1402 162.69 94.9172C157.901 94.4109 152.918 98.2279 152.14 103.642C150.31 102.395 146.105 105.083 143.769 108.744C141.628 112.093 141.589 116.339 143.186 119.221C140.421 118.559 137.112 123.389 137.385 126.816C137.657 130.243 138.631 131.256 139.799 133.827C139.799 133.827 136.295 136.475 137.229 141.85C138.008 146.329 140.655 148.744 142.563 149.951C142.563 149.951 142.602 149.951 142.602 149.99C142.679 150.029 142.757 150.068 142.796 150.107C142.835 150.107 142.835 150.146 142.874 150.146C142.952 150.185 142.991 150.224 143.069 150.263C143.108 150.263 143.108 150.302 143.147 150.302C143.224 150.341 143.263 150.38 143.341 150.38C143.38 150.38 143.38 150.419 143.419 150.419C143.458 150.458 143.536 150.458 143.575 150.497C143.614 150.497 143.614 150.536 143.653 150.536C143.692 150.574 143.769 150.574 143.808 150.613C143.847 150.613 143.847 150.652 143.886 150.652C143.925 150.691 143.964 150.691 144.003 150.73C144.003 150.73 144.042 150.73 144.042 150.769C144.081 150.769 144.12 150.808 144.159 150.808C144.159 150.808 144.198 150.808 144.198 150.847C144.237 150.847 144.276 150.886 144.315 150.886H144.353C144.392 150.886 144.392 150.925 144.431 150.925H144.47C144.509 150.925 144.509 150.925 144.548 150.964C144.548 150.964 144.548 150.964 144.587 150.964H144.626H144.665C144.665 150.964 151.867 150.574 155.371 146.641C158.407 143.213 156.733 139.279 156.733 139.279C156.733 139.279 156.811 139.279 156.889 139.241C157.006 139.202 157.162 139.163 157.317 139.085C157.512 139.007 157.745 138.929 157.979 138.851C159.069 138.462 160.626 137.799 161.522 137.098C161.638 137.02 161.716 136.943 161.794 136.865C163.429 135.268 164.208 133.398 164.325 131.685C164.403 130.399 164.052 129.27 163.39 128.452C163.157 128.179 162.884 127.945 162.612 127.751C163.001 127.673 163.39 127.634 163.78 127.517C164.558 127.322 165.337 127.089 166.038 126.738C166.894 126.31 167.712 125.764 168.451 124.985C168.568 124.869 168.685 124.752 168.763 124.596C168.841 124.479 168.918 124.401 168.996 124.284C169.541 123.583 169.97 122.687 170.32 121.675C170.787 120.312 170.67 119.143 170.125 118.169C169.736 117.429 169.113 116.806 168.334 116.378C170.709 114.82 172.928 111.743 173.94 108.588C174.641 106.446 174.758 104.265 173.979 102.512C176.237 100.331 178.067 97.6436 179.391 94.8004C181.104 91.1003 181.96 87.0497 181.727 83.0769Z" fill="#328F7B"/>
<path d="M181.727 83.0769C181.415 83.0769 181.104 83.038 180.831 83.038C172.967 82.9601 166.583 88.1402 162.69 94.9172C157.901 94.4109 152.918 98.2279 152.14 103.642C150.31 102.395 146.105 105.083 143.769 108.744C141.628 112.093 141.589 116.339 143.186 119.221C140.421 118.559 137.112 123.389 137.385 126.816C137.657 130.243 138.631 131.256 139.799 133.827C139.799 133.827 136.295 136.475 137.229 141.85C138.008 146.329 140.655 148.744 142.563 149.951C142.563 149.951 142.602 149.951 142.602 149.99C142.679 150.029 142.757 150.068 142.796 150.107C142.835 150.107 142.835 150.146 142.874 150.146C142.952 150.185 142.991 150.224 143.069 150.263C143.108 150.263 143.108 150.302 143.147 150.302C143.224 150.341 143.263 150.38 143.341 150.38C143.38 150.38 143.38 150.419 143.419 150.419C143.458 150.458 143.536 150.458 143.575 150.497C143.614 150.497 143.614 150.536 143.653 150.536C143.692 150.574 143.769 150.574 143.808 150.613C143.847 150.613 143.847 150.652 143.886 150.652C143.925 150.691 143.964 150.691 144.003 150.73C144.003 150.73 144.042 150.73 144.042 150.769C144.081 150.769 144.12 150.808 144.159 150.808C144.159 150.808 144.198 150.808 144.198 150.847C144.237 150.847 144.276 150.886 144.315 150.886H144.353C144.392 150.886 144.392 150.925 144.431 150.925H144.47C144.509 150.925 144.509 150.925 144.548 150.964C144.548 150.964 144.548 150.964 144.587 150.964H144.626H144.665C144.665 150.964 151.867 150.574 155.371 146.641C158.407 143.213 156.733 139.279 156.733 139.279C156.733 139.279 156.811 139.279 156.889 139.241C157.006 139.202 157.162 139.163 157.317 139.085C157.512 139.007 157.745 138.929 157.979 138.851C159.069 138.462 160.626 137.799 161.522 137.098C161.638 137.02 161.716 136.943 161.794 136.865C163.429 135.268 164.208 133.398 164.325 131.685C164.403 130.399 164.052 129.27 163.39 128.452C163.157 128.179 162.884 127.945 162.612 127.751C163.001 127.673 163.39 127.634 163.78 127.517C164.558 127.322 165.337 127.089 166.038 126.738C166.894 126.31 167.712 125.764 168.451 124.985C168.568 124.869 168.685 124.752 168.763 124.596C168.841 124.479 168.918 124.401 168.996 124.284C169.541 123.583 169.97 122.687 170.32 121.675C170.787 120.312 170.67 119.143 170.125 118.169C169.736 117.429 169.113 116.806 168.334 116.378C170.709 114.82 172.928 111.743 173.94 108.588C174.641 106.446 174.758 104.265 173.979 102.512C176.237 100.331 178.067 97.6436 179.391 94.8004C181.104 91.1003 181.96 87.0497 181.727 83.0769Z" fill="url(#paint6_linear_952_17666)"/>
<path d="M196.831 126.777C196.598 126.738 196.325 126.738 196.092 126.738C189.396 126.621 183.323 130.322 178.417 134.528C174.992 132.736 170.281 133.944 167.4 137.449C166.699 135.774 162.768 135.852 159.653 136.982C156.772 138.033 154.631 140.448 153.93 143.058C152.685 141.071 148.208 141.733 146.222 143.603C144.237 145.472 144.081 146.563 142.835 148.51C142.835 148.51 139.409 147.381 135.75 150.029C132.713 152.249 131.779 154.898 131.623 156.69C131.623 156.69 131.623 156.69 131.623 156.729C131.623 156.806 131.623 156.845 131.623 156.923V156.962C131.623 157.04 131.623 157.079 131.623 157.157C131.623 157.196 131.623 157.196 131.623 157.235C131.623 157.274 131.623 157.352 131.623 157.391C131.623 157.43 131.623 157.43 131.623 157.469C131.623 157.508 131.623 157.585 131.623 157.624C131.623 157.663 131.623 157.663 131.623 157.702C131.623 157.741 131.623 157.78 131.623 157.819V157.858C131.623 157.897 131.623 157.936 131.623 157.975V158.014C131.623 158.053 131.623 158.092 131.623 158.131V158.17C131.623 158.209 131.623 158.248 131.623 158.248V158.286C131.623 158.325 131.623 158.325 131.623 158.364V158.403C131.623 158.442 131.623 158.442 131.623 158.442C131.623 158.442 131.623 158.442 131.623 158.481V158.52C131.623 158.52 131.623 158.52 131.623 158.559C131.623 158.559 135.477 163.895 140.928 164.635C145.677 165.297 148.013 162.142 148.013 162.142C148.013 162.142 148.052 162.181 148.169 162.22C148.247 162.259 148.402 162.337 148.558 162.415C148.714 162.493 148.908 162.61 149.142 162.727C150.154 163.194 151.672 163.817 152.84 163.973C152.957 163.973 153.113 164.012 153.23 164.012C155.565 164.09 157.629 163.389 158.991 162.376C160.003 161.636 160.626 160.701 160.782 159.805C160.821 159.494 160.821 159.221 160.743 158.949C161.055 159.104 161.366 159.26 161.716 159.416C162.378 159.689 163.079 159.922 163.858 160.078C164.792 160.234 165.765 160.234 166.816 160.039C166.972 160 167.167 159.961 167.322 159.922C167.439 159.883 167.595 159.844 167.712 159.805C168.607 159.533 169.541 159.104 170.476 158.481C171.721 157.663 172.383 156.69 172.617 155.755C172.773 155.015 172.695 154.275 172.383 153.652C175.108 153.457 178.651 151.743 181.104 149.367C182.778 147.731 183.907 145.823 184.101 144.109C186.865 142.746 189.474 140.682 191.576 138.111C194.301 134.762 196.17 130.711 196.831 126.777Z" fill="#4FAE86"/>
<path d="M196.831 126.777C196.598 126.738 196.325 126.738 196.092 126.738C189.396 126.621 183.323 130.322 178.417 134.528C174.992 132.736 170.281 133.944 167.4 137.449C166.699 135.774 162.768 135.852 159.653 136.982C156.772 138.033 154.631 140.448 153.93 143.058C152.685 141.071 148.208 141.733 146.222 143.603C144.237 145.472 144.081 146.563 142.835 148.51C142.835 148.51 139.409 147.381 135.75 150.029C132.713 152.249 131.779 154.898 131.623 156.69C131.623 156.69 131.623 156.69 131.623 156.729C131.623 156.806 131.623 156.845 131.623 156.923V156.962C131.623 157.04 131.623 157.079 131.623 157.157C131.623 157.196 131.623 157.196 131.623 157.235C131.623 157.274 131.623 157.352 131.623 157.391C131.623 157.43 131.623 157.43 131.623 157.469C131.623 157.508 131.623 157.585 131.623 157.624C131.623 157.663 131.623 157.663 131.623 157.702C131.623 157.741 131.623 157.78 131.623 157.819V157.858C131.623 157.897 131.623 157.936 131.623 157.975V158.014C131.623 158.053 131.623 158.092 131.623 158.131V158.17C131.623 158.209 131.623 158.248 131.623 158.248V158.286C131.623 158.325 131.623 158.325 131.623 158.364V158.403C131.623 158.442 131.623 158.442 131.623 158.442C131.623 158.442 131.623 158.442 131.623 158.481V158.52C131.623 158.52 131.623 158.52 131.623 158.559C131.623 158.559 135.477 163.895 140.928 164.635C145.677 165.297 148.013 162.142 148.013 162.142C148.013 162.142 148.052 162.181 148.169 162.22C148.247 162.259 148.402 162.337 148.558 162.415C148.714 162.493 148.908 162.61 149.142 162.727C150.154 163.194 151.672 163.817 152.84 163.973C152.957 163.973 153.113 164.012 153.23 164.012C155.565 164.09 157.629 163.389 158.991 162.376C160.003 161.636 160.626 160.701 160.782 159.805C160.821 159.494 160.821 159.221 160.743 158.949C161.055 159.104 161.366 159.26 161.716 159.416C162.378 159.689 163.079 159.922 163.858 160.078C164.792 160.234 165.765 160.234 166.816 160.039C166.972 160 167.167 159.961 167.322 159.922C167.439 159.883 167.595 159.844 167.712 159.805C168.607 159.533 169.541 159.104 170.476 158.481C171.721 157.663 172.383 156.69 172.617 155.755C172.773 155.015 172.695 154.275 172.383 153.652C175.108 153.457 178.651 151.743 181.104 149.367C182.778 147.731 183.907 145.823 184.101 144.109C186.865 142.746 189.474 140.682 191.576 138.111C194.301 134.762 196.17 130.711 196.831 126.777Z" fill="url(#paint7_linear_952_17666)"/>
<path d="M139.293 163.583C139.293 163.583 123.643 138.773 178.145 118.364C178.145 118.364 170.009 167.907 139.293 163.583Z" fill="#6AC578"/>
<path d="M79.4567 165.336C79.3788 165.687 79.3399 166.037 79.3399 166.388L71.8653 168.958C71.5538 168.725 61.5877 172.697 58.4733 171.412C55.3199 170.127 55.5924 166.271 55.8649 164.479C56.1375 162.649 55.9428 160.39 54.3077 159.533C52.5169 158.598 50.3368 160.078 48.3514 159.728C46.4438 159.416 45.1591 157.507 44.8477 155.638C44.5362 153.729 44.9645 151.821 45.1981 149.913C45.4316 148.004 45.4706 145.94 44.4973 144.304C43.4462 142.512 41.4218 141.539 40.215 139.864C38.541 137.605 38.7746 134.138 40.7211 132.074C42.6676 130.01 46.0934 129.62 48.4682 131.178C50.1033 132.23 51.1154 133.983 52.3223 135.502C53.5291 137.021 55.1642 138.462 57.1107 138.423C59.0183 138.384 63.7678 136.865 65.6364 137.215C67.544 137.605 68.5951 139.708 69.0623 141.617C69.5295 143.525 68.3616 146.018 69.8798 147.303C72.0599 149.134 78.0163 149.25 80.3521 150.925C81.9871 152.094 82.5711 154.392 82.2597 156.378C81.9093 157.936 79.7681 163.817 79.4567 165.336Z" fill="#6AC578"/>
<path d="M79.4567 165.336C79.3788 165.687 79.3399 166.037 79.3399 166.388L71.8653 168.958C71.5538 168.725 61.5877 172.697 58.4733 171.412C55.3199 170.127 55.5924 166.271 55.8649 164.479C56.1375 162.649 55.9428 160.39 54.3077 159.533C52.5169 158.598 50.3368 160.078 48.3514 159.728C46.4438 159.416 45.1591 157.507 44.8477 155.638C44.5362 153.729 44.9645 151.821 45.1981 149.913C45.4316 148.004 45.4706 145.94 44.4973 144.304C43.4462 142.512 41.4218 141.539 40.215 139.864C38.541 137.605 38.7746 134.138 40.7211 132.074C42.6676 130.01 46.0934 129.62 48.4682 131.178C50.1033 132.23 51.1154 133.983 52.3223 135.502C53.5291 137.021 55.1642 138.462 57.1107 138.423C59.0183 138.384 63.7678 136.865 65.6364 137.215C67.544 137.605 68.5951 139.708 69.0623 141.617C69.5295 143.525 68.3616 146.018 69.8798 147.303C72.0599 149.134 78.0163 149.25 80.3521 150.925C81.9871 152.094 82.5711 154.392 82.2597 156.378C81.9093 157.936 79.7681 163.817 79.4567 165.336Z" fill="url(#paint8_linear_952_17666)"/>
<path d="M86.3863 184.148C86.3863 184.148 51.9719 139.396 20.1659 141.655C20.1659 141.655 61.2763 188.199 86.3863 184.148Z" fill="#4FAE86"/>
<path d="M86.3863 184.148C86.3863 184.148 51.9719 139.396 20.1659 141.655C20.1659 141.655 61.2763 188.199 86.3863 184.148Z" fill="url(#paint9_linear_952_17666)"/>
<path d="M64.8578 178.539L143.108 183.213C146.767 183.447 150.115 180.643 150.582 176.943L168.724 24.927C169.152 21.2269 166.544 18.0721 162.884 17.8774L84.6344 13.2035C80.975 12.9699 77.627 15.7741 77.1598 19.4742L59.0183 171.49C58.5901 175.151 61.1984 178.306 64.8578 178.539Z" fill="url(#paint10_linear_952_17666)"/>
<path d="M55.6313 170.828L60.6923 176.631L64.3907 176.826L61.6266 169.659L55.6313 170.828Z" fill="url(#paint11_linear_952_17666)"/>
<path d="M161.755 14.4497L167.167 19.9025L165.609 33.846L159.264 21.1099L161.755 14.4497Z" fill="url(#paint12_linear_952_17666)"/>
<path d="M60.887 174.255L139.137 178.929C142.796 179.163 146.144 176.358 146.611 172.658L164.753 20.6426C165.181 16.9425 162.573 13.7877 158.913 13.5929L80.6635 8.91912C77.0041 8.68543 73.6561 11.4897 73.1889 15.1898L55.0474 167.205C54.5802 170.867 57.1886 174.06 60.887 174.255Z" fill="url(#paint13_linear_952_17666)"/>
<path d="M98.5326 168.179C98.299 170.049 99.6226 171.684 101.53 171.801C103.399 171.918 105.112 170.477 105.345 168.608C105.579 166.738 104.255 165.102 102.348 164.985C100.479 164.868 98.7661 166.271 98.5326 168.179Z" fill="#E7E8EB"/>
<path d="M106.046 20.4089L131.662 21.9279C132.246 21.9668 132.752 21.5384 132.83 20.9542C132.908 20.3699 132.48 19.8636 131.896 19.8247L106.28 18.3057C105.696 18.2667 105.19 18.6952 105.112 19.2794C105.034 19.9026 105.462 20.3699 106.046 20.4089Z" fill="url(#paint14_linear_952_17666)"/>
<path d="M58.9794 157.897L144.626 162.999L160.587 28.8997L74.9408 23.7585L58.9794 157.897Z" fill="white"/>
<path opacity="0.37" d="M77.4712 99.0848C73.5003 98.8121 70.9699 95.4236 71.8653 91.5288C72.7217 87.595 76.6926 84.6349 80.6635 84.9076C84.6344 85.1802 87.1649 88.5687 86.2695 92.4635C85.3741 96.3973 81.4421 99.3574 77.4712 99.0848Z" fill="url(#paint15_linear_952_17666)"/>
<g opacity="0.37">
<path d="M92.9655 102.24L90.4351 102.045L90.9801 99.5911L93.5105 99.7469L92.9655 102.24Z" fill="url(#paint16_linear_952_17666)"/>
<path d="M134.699 104.966L96.0021 102.434L96.5471 99.9417L135.244 102.512L134.699 104.966Z" fill="url(#paint17_linear_952_17666)"/>
<path d="M141.239 110.73L94.8342 107.692L95.3792 105.2L141.784 108.238L141.239 110.73Z" fill="url(#paint18_linear_952_17666)"/>
<path d="M126.017 115.054L93.6663 112.912L94.2113 110.458L126.562 112.561L126.017 115.054Z" fill="url(#paint19_linear_952_17666)"/>
<path d="M109.783 119.26L92.9656 118.13L93.3549 116.417L110.173 117.507L109.783 119.26Z" fill="url(#paint20_linear_952_17666)"/>
<path d="M136.295 120.974L113.404 119.494L113.793 117.741L136.684 119.26L136.295 120.974Z" fill="url(#paint21_linear_952_17666)"/>
<path d="M140.422 98.3837L89.5397 95.0341L90.7854 89.4255L141.667 92.7751L140.422 98.3837Z" fill="url(#paint22_linear_952_17666)"/>
</g>
<g opacity="0.37">
<path d="M142.446 71.8598L96.0021 68.8218L96.586 66.3291L142.991 69.406L142.446 71.8598Z" fill="url(#paint23_linear_952_17666)"/>
<path d="M127.224 76.1831L94.8342 74.0799L95.3792 71.5872L127.769 73.7293L127.224 76.1831Z" fill="url(#paint24_linear_952_17666)"/>
<path d="M110.951 80.3894L94.1334 79.2988L94.5227 77.5461L111.341 78.6367L110.951 80.3894Z" fill="url(#paint25_linear_952_17666)"/>
<path d="M137.502 82.1421L114.611 80.6232L115 78.9094L137.891 80.3895L137.502 82.1421Z" fill="url(#paint26_linear_952_17666)"/>
</g>
<path d="M189.551 60.3699C187.255 56.9035 184.335 59.8247 178.69 67.4975C173.006 75.1703 169.425 78.7536 169.425 78.7536C169.425 78.7536 168.179 79.8441 166.077 80.9736C166.972 83.6611 169.502 89.3865 169.502 89.3865C171.254 88.7244 171.877 87.7896 172.111 87.6338C174.408 85.8422 184.335 75.5598 186.826 72.0545C189.357 68.5881 191.148 62.7068 189.551 60.3699Z" fill="#FFBEB0"/>
<path d="M200.608 56.4752C205.708 54.5277 209.756 53.8656 209.484 47.8286C209.328 43.778 208.121 36.4946 205.435 33.0282C202.788 29.5229 197.493 30.7692 197.493 30.7692L192.9 34.4304C192.9 34.4304 193.211 39.8442 195.002 46.5433C196.014 50.0487 200.686 53.9435 200.608 56.4752Z" fill="url(#paint27_linear_952_17666)"/>
<path d="M207.304 58.7343C207.304 58.7343 203.099 58.0721 201.892 55.8521C200.179 52.6194 200.335 45.5308 200.335 45.5308L192.627 49.7372C192.627 49.7372 193.561 56.2416 189.59 58.0721C188.89 58.3837 187.994 58.968 187.255 59.5522C186.982 65.3165 185.853 71.003 185.347 76.7284C186.554 79.3769 187.605 81.1685 187.605 81.1685C187.605 81.1685 200.491 77.9748 204.228 71.5483C207.927 65.0829 207.304 58.7343 207.304 58.7343Z" fill="#FFBEB0"/>
<path d="M207.304 58.7343C207.304 58.7343 203.099 58.0721 201.892 55.8521C200.179 52.6194 200.335 45.5308 200.335 45.5308L192.627 49.7372C192.627 49.7372 193.561 56.2416 189.59 58.0721C189.084 58.3058 188.461 58.6953 187.877 59.0848C187.06 63.6028 186.398 68.1598 186.203 72.7946C186.126 74.6642 186.087 76.6116 186.203 78.559C187.021 80.1559 187.605 81.1685 187.605 81.1685C187.605 81.1685 200.491 77.9748 204.228 71.5483C207.927 65.0829 207.304 58.7343 207.304 58.7343Z" fill="url(#paint28_linear_952_17666)"/>
<path d="M187.099 53.8267C188.929 55.3456 190.447 55.6572 191.615 55.5793C191.965 52.6582 193.795 52.814 195.469 48.257C197.415 42.999 196.987 35.3262 196.987 35.3262L197.571 30.7303C196.52 30.2239 191.654 30.185 188.734 32.2492C183.167 36.222 186.671 45.8422 187.177 48.0623C187.449 49.1139 187.449 52.2687 187.099 53.8267Z" fill="url(#paint29_linear_952_17666)"/>
<path d="M197.026 35.0535C195.469 35.5208 193.951 35.9882 192.432 36.4946C191.42 36.8451 190.369 36.8061 189.435 36.4556C187.41 40.3115 187.644 42.5316 187.06 47.478C187.138 47.7117 187.177 47.9064 187.216 48.0233C187.449 49.0749 187.449 52.2297 187.138 53.7876C188.968 55.3066 190.252 56.5919 191.381 56.514C192.432 55.5403 193.795 52.775 195.469 48.1791C197.415 42.921 196.987 35.2482 196.987 35.2482L197.026 35.0535Z" fill="#944F38"/>
<path d="M189.007 35.6766C188.851 37.1956 187.994 41.7136 188.111 44.5569C188.189 47.4001 188.851 52.0739 190.836 53.2424C192.822 54.4108 196.286 53.1255 198.778 51.8792C201.308 50.6328 201.776 48.7633 202.165 47.0496C202.554 45.3358 202.048 40.9347 201.231 37.7799C200.413 34.664 198.311 33.4955 195.936 33.2229C193.561 32.9892 189.007 35.6766 189.007 35.6766Z" fill="#FFBEB0"/>
<path d="M175.965 154.314C175.965 154.314 187.216 158.169 197.922 160.467C208.627 162.765 223.148 155.91 223.148 155.91C223.148 155.91 214.817 115.326 211.547 105.161C208.238 95.0341 209.64 95.073 212.092 78.9095C212.598 75.5209 214.895 66.3291 213.883 64.6933C210.107 58.5784 195.43 69.8345 195.43 69.8345L187.566 81.1685C187.449 81.3243 187.332 81.4801 187.216 81.6358C185.853 83.3106 183.478 80.3116 184.218 83.3496C185.036 86.6991 184.53 100.993 184.53 100.993C184.53 100.993 183.439 105.355 182.077 110.691C180.909 115.17 179.546 120.312 178.495 124.051C176.121 132.269 175.965 154.314 175.965 154.314Z" fill="url(#paint30_linear_952_17666)"/>
<path d="M185.62 87.9845C185.62 87.9845 185.386 88.1013 187.839 88.0234C190.564 87.9066 194.457 87.595 198.7 86.6213C206.837 84.7907 210.691 79.5716 210.691 79.5716C211.08 77.3905 211.158 74.4694 211.119 71.5483C211.002 65.7839 211.781 59.9416 211.781 59.9416L205.669 58.189C203.255 60.0195 202.165 69.484 193.016 68.5882C185.503 67.8482 189.007 58.3058 189.007 58.3058C189.007 58.3058 186.242 58.189 186.126 58.89C184.88 66.446 181.727 73.7683 182.778 78.1695C184.101 83.5054 185.62 87.9845 185.62 87.9845Z" fill="url(#paint31_linear_952_17666)"/>
<path d="M199.634 42.6095C199.634 42.6095 201.231 40.5842 202.399 40.8178C203.566 41.0126 203.761 42.7263 202.983 44.2064C202.204 45.6864 199.051 46.6991 199.051 46.6991L199.634 42.6095Z" fill="#FFBEB0"/>
<path d="M196.481 34.1968C194.924 34.4694 193.483 36.7674 190.836 38.4811C188.189 40.2338 186.087 39.9222 186.087 39.9222L186.904 34.6252C186.904 34.6252 190.408 32.0935 193.016 32.1714C195.625 32.2493 196.481 34.1968 196.481 34.1968Z" fill="url(#paint32_linear_952_17666)"/>
<path d="M200.102 47.595C200.179 51.412 200.141 53.5931 197.065 56.8647C200.179 57.0595 203.06 55.5795 204.384 54.0215C204.034 51.2562 203.644 47.8287 203.644 46.0371C203.605 42.7654 206.175 36.9232 198.544 32.9894C195.041 31.1978 193.678 34.7031 193.678 34.7031C194.496 34.7031 199.985 40.6622 200.102 47.595Z" fill="url(#paint33_linear_952_17666)"/>
<path d="M200.335 88.3738C200.958 86.2706 203.411 79.3378 205.435 71.8986C207.927 62.7068 209.951 57.994 213.377 60.3699C215.713 62.0057 216.452 66.7574 215.362 70.9249C214.35 74.8197 207.615 91.9181 205.863 94.4887C205.318 95.3455 204.54 96.0466 202.827 95.5013C201.425 95.034 200.647 94.2939 200.296 93.8265C199.167 92.3465 201.425 89.9317 200.335 88.3738Z" fill="#FFBEB0"/>
<path d="M149.882 53.1257C149.414 52.1909 149.648 51.334 150.388 51.7235C150.699 51.8793 153.385 55.6573 154.047 56.5531C154.67 57.4489 157.239 60.409 157.629 61.4996C158.018 62.5901 158.641 66.6408 159.147 67.6145C159.614 68.5492 161.755 71.5482 164.208 73.963C166.933 76.6894 168.49 78.7926 169.308 80.039C169.892 82.4927 170.047 85.1023 170.32 87.5171C170.359 87.9066 170.437 88.374 170.515 88.8803C170.086 89.114 169.775 89.3087 169.541 89.3477C167.673 89.815 166.583 88.5687 165.376 87.556C164.13 86.5434 161.094 79.5327 159.42 76.8063C159.42 76.8063 157.123 72.8725 155.916 71.003C154.709 69.1334 153.152 69.3671 152.646 67.4197C152.101 65.4723 150.816 65.3555 150.582 63.6028C150.466 62.707 151.361 62.0838 152.062 61.3048C153.191 60.0974 154.047 60.2532 154.047 60.2532C154.047 60.2532 151.945 56.7868 151.711 56.0857C151.4 55.4626 150.388 54.0994 149.882 53.1257Z" fill="#FFBEB0"/>
<path d="M154.904 59.8637C154.281 59.669 153.697 59.3963 153.191 59.0068C153.619 59.7469 154.008 60.37 154.008 60.37C154.008 60.37 153.152 60.2142 152.023 61.4216C151.322 62.2006 150.427 62.8238 150.543 63.7196C150.777 65.4723 152.062 65.5891 152.607 67.5365C152.762 68.1208 152.996 68.4713 153.307 68.7829C153.385 68.7829 153.502 68.7829 153.58 68.7829C154.398 68.7829 154.981 68.6271 155.254 67.965C155.838 66.6797 154.748 64.7323 154.709 63.3301C154.67 62.4343 155.098 60.8374 154.904 59.8637Z" fill="url(#paint34_linear_952_17666)"/>
<path d="M149.337 61.9671C149.259 62.8629 149.064 66.6019 149.531 66.9135C149.998 67.2251 150.504 66.2903 150.504 66.2903C150.504 66.2903 150.816 67.303 151.283 67.3419C151.75 67.3809 151.984 66.0956 151.984 66.0956C151.984 66.0956 152.451 67.2251 152.957 66.9524C153.463 66.6798 153.346 65.5114 153.346 64.7713C153.346 64.0313 153.541 61.4218 153.541 61.4218L152.723 60.1365C152.295 60.2533 151.828 60.3312 151.439 60.4481C150.466 60.7986 149.453 61.0712 149.337 61.9671Z" fill="#FFBEB0"/>
<path d="M149.337 61.9671C149.259 62.8629 149.064 66.6019 149.531 66.9135C149.998 67.2251 150.504 66.2903 150.504 66.2903C150.504 66.2903 150.816 67.303 151.283 67.3419C151.75 67.3809 151.984 66.0956 151.984 66.0956C151.984 66.0956 152.451 67.2251 152.957 66.9524C153.463 66.6798 153.346 65.5114 153.346 64.7713C153.346 64.0313 153.541 61.4218 153.541 61.4218L152.723 60.1365C152.295 60.2533 151.828 60.3312 151.439 60.4481C150.466 60.7986 149.453 61.0712 149.337 61.9671Z" fill="url(#paint35_linear_952_17666)"/>
<path d="M155.721 66.4851C155.565 67.4588 153.541 65.0829 153.619 64.0313C153.697 62.9797 153.074 61.8502 152.607 61.3828C152.139 60.9155 151.244 60.1754 150.621 59.7081C149.998 59.2407 149.687 58.267 149.687 57.488C149.687 56.709 150.699 57.2933 152.062 58.1112C153.424 58.8901 154.904 59.7081 155.565 60.2923C156.227 60.8765 156.694 62.045 156.694 62.045C156.694 62.045 155.838 65.7061 155.721 66.4851Z" fill="#FFBEB0"/>
<path d="M202.476 96.9037C202.476 96.9037 197.649 100.136 193.951 101.733C190.252 103.33 181.298 105.122 180.091 106.407C178.885 107.692 175.381 108.082 174.641 108.861C173.902 109.64 172.189 110.341 171.371 110.536C171.099 110.575 170.943 110.536 170.787 110.458C170.515 110.263 170.476 109.912 170.476 109.912C170.476 109.912 169.308 110.38 168.802 110.224C168.296 110.068 168.14 109.835 169.269 109.056C169.814 108.705 170.281 108.393 170.476 108.082C170.748 107.614 170.593 107.03 170.593 107.03C170.593 107.03 169.658 107.576 168.802 108.393C168.023 109.133 166.661 109.874 166.388 109.289C166.077 108.705 167.828 107.069 168.529 106.329C169.23 105.589 169.853 105.044 169.853 105.044C169.853 105.044 169.541 104.343 168.841 104.421C168.14 104.499 165.921 104.849 165.181 104.966C164.442 105.122 163.624 105.278 163.39 104.771C163.157 104.226 164.403 103.914 165.804 103.447C167.206 102.98 168.529 102.473 170.826 102.746C173.123 103.019 177.756 102.434 179.391 101.889C181.999 100.993 186.749 97.449 190.992 94.7226C193.484 93.0867 196.325 92.3857 198.038 92.113L202.476 96.9037Z" fill="#FFBEB0"/>
<path d="M197.961 92.1909C199.128 91.5678 200.452 87.8677 200.452 87.8677L206.953 91.2172C206.953 91.2172 205.941 94.2552 205.279 95.19C204.657 96.1247 199.362 98.8901 199.362 98.8901L195.897 95.3068L197.961 92.1909Z" fill="#FFBEB0"/>
<path d="M119.088 97.6437C118.698 97.8773 116.596 98.9289 115.856 99.8248C115.117 100.76 114.144 102.24 114.144 102.24L113.988 99.5132C113.988 99.5132 116.129 95.2678 117.024 94.8394C117.92 94.4109 120.295 94.9952 120.295 94.9952L119.088 97.6437Z" fill="#C68C8F"/>
<path d="M74.3568 128.53L88.4885 122.921C88.4885 122.921 91.7197 127.945 92.2648 132.97C92.7709 137.994 92.6151 139.513 92.6151 139.513L77.043 141.032C77.0041 141.032 74.2011 133.554 74.3568 128.53Z" fill="url(#paint36_linear_952_17666)"/>
<path d="M108.849 127.906C108.849 127.906 115.623 125.531 118.037 124.44C119.827 123.661 122.397 120.857 125.823 116.3C127.029 114.703 131.039 109.367 131.896 107.731C133.57 108.939 134.154 110.302 135.944 111.198C134.387 115.716 131.74 120.389 130.222 123.778C129.56 125.258 126.679 130.01 124.032 133.164C122.825 134.606 119.555 136.436 118.659 136.748C116.557 137.449 106.552 141.032 106.552 141.032C106.241 136.709 106.046 134.528 105.696 130.243C105.501 129.854 108.849 127.906 108.849 127.906Z" fill="#FFBEB0"/>
<path d="M97.2478 123.155C99.0386 122.376 102.309 114.937 105.735 110.38C107.603 107.887 109.005 105.862 109.9 104.499C110.951 105.044 112.08 105.55 113.053 106.095C113.637 106.446 114.26 106.758 114.883 107.108C113.56 110.497 110.328 120.935 108.732 125.258C106.98 129.932 100.168 135.346 97.3256 136.28C94.4448 137.254 85.9969 140.331 85.9969 140.331C85.6855 136.008 84.5954 131.568 84.2061 127.244C83.9726 126.894 95.4959 123.973 97.2478 123.155Z" fill="#FFBEB0"/>
<path d="M114.105 125.998L104.567 128.14C104.567 128.14 104.372 128.14 104.1 128.101C103.944 134.333 103.788 144.927 104.294 151.237C106.513 147.848 116.557 140.487 116.557 140.487C117.764 137.449 114.105 125.998 114.105 125.998Z" fill="url(#paint37_linear_952_17666)"/>
<path d="M93.6272 100.915C93.6272 100.915 93.8997 107.303 94.2501 108.705C94.6005 110.107 94.3669 112.872 94.2501 114.742C94.1333 116.611 93.3937 118.053 92.654 118.208C92.654 118.208 94.0555 125.219 94.5616 127.556C94.5616 127.556 87.9045 129.932 81.5589 128.88C81.5589 128.88 81.9871 124.596 81.1306 120.156C81.1306 120.156 82.3375 108.16 86.3473 104.654C90.3182 101.149 93.6272 100.915 93.6272 100.915Z" fill="#FFBEB0"/>
<path d="M93.2379 102.668C94.3669 102.24 95.7295 99.1237 93.5104 96.3974C91.2914 93.671 86.2694 93.1257 82.4542 93.9826C78.678 94.8005 74.3178 97.7605 73.5003 99.8638C72.6828 101.967 73.8117 103.681 73.8117 103.681C73.8117 103.681 71.9431 104.615 71.8263 107.576C71.7484 110.536 72.2935 112.873 75.0575 114.859C77.8215 116.845 81.0917 120.156 81.0917 120.156C81.0917 120.156 87.3205 118.442 88.9167 118.364C88.9167 118.364 91.1357 114.275 91.525 113.067C91.525 113.067 89.267 110.497 90.396 107.965C90.9021 106.797 92.07 107.887 92.4204 109.328C92.7318 110.808 93.0043 111.938 93.0043 111.938C93.2379 111.587 93.3547 111.431 93.6272 111.081C93.6272 111.081 93.5883 107.692 93.3547 106.134C93.0433 104.577 93.2379 102.668 93.2379 102.668Z" fill="#373362"/>
<path d="M81.4031 128.335C81.4031 128.335 91.9922 127.673 96.1188 128.257C96.1188 128.257 95.7684 126.699 95.1066 125.803C95.1066 125.803 88.8777 123.116 82.1428 124.946C82.1039 124.946 81.2085 126.426 81.4031 128.335Z" fill="url(#paint38_linear_952_17666)"/>
<path d="M81.4421 128.569H74.3568C74.3568 128.569 70.2302 132.425 69.8409 137.838C69.2569 145.94 69.802 158.481 70.5416 162.142C71.7485 168.257 72.9942 176.047 72.7996 183.252C72.6049 190.458 71.2813 197.546 71.2813 197.546C71.2813 197.546 77.5101 198.715 89.306 199.727C101.102 200.701 112.236 199.182 112.236 199.182C112.236 199.182 110.212 176.475 108.46 162.493C106.669 148.51 106.552 147.848 106.552 147.848C105.618 139.435 105.812 136.553 104.606 128.14C101.53 128.802 99.2722 127.829 96.1967 128.491C91.4861 127.829 82.6489 127.868 81.4421 128.569Z" fill="url(#paint39_linear_952_17666)"/>
<path d="M113.637 110.224C113.637 110.224 114.105 107.887 115.311 106.641C115.506 106.446 116.324 105.862 116.791 105.355C117.258 104.888 118.037 103.992 118.543 103.72C119.204 103.33 121.151 101.266 121.229 100.837C121.346 100.409 120.645 99.7858 119.749 100.331C119.204 100.682 117.491 101.733 117.491 101.733C117.491 101.733 114.689 102.045 114.299 101.85C113.91 101.655 112.586 100.175 112.547 99.7469C112.508 99.3184 112.041 97.9552 111.886 96.3194C111.847 95.9299 112.47 93.7098 112.937 93.3593C113.404 93.0477 113.793 92.5803 113.91 92.1519C114.027 91.7235 114.027 90.6719 113.832 90.6719C113.637 90.6719 111.496 92.0351 111.185 92.2688C110.912 92.5024 109.744 94.8394 109.433 96.0468C109.355 96.3583 109.667 99.63 109.472 100.292C109.238 100.993 109.589 102.006 109.667 103.019C109.744 104.031 109.861 104.576 109.277 105.433L113.637 110.224Z" fill="#FFBEB0"/>
<path d="M115.078 77.4684L139.331 76.1441C142.057 75.9883 144.392 78.0915 144.548 80.8179L145.482 97.7994C145.638 100.526 143.536 102.863 140.811 103.019L132.324 103.486L128.976 108.822L125.2 103.875L116.596 104.343C113.871 104.499 111.535 102.395 111.379 99.6689L110.445 82.6874C110.289 79.9611 112.353 77.6241 115.078 77.4684Z" fill="url(#paint40_linear_952_17666)"/>
<path d="M122.903 96.6309L119.788 96.7867C119.282 96.8256 118.854 96.4361 118.815 95.9298L118.387 88.1012C118.348 87.5949 118.737 87.1664 119.243 87.1275L122.358 86.9717C122.864 86.9327 123.292 87.3222 123.331 87.8285L123.759 95.6572C123.798 96.2024 123.409 96.6309 122.903 96.6309Z" fill="white"/>
<path d="M125.239 88.1403C125.2 87.634 125.433 87.1276 125.823 86.7771C126.64 86.0371 128.042 85.336 128.47 81.3633C128.704 79.2601 131.195 80.5454 131.468 82.7654C131.662 84.596 131.662 86.115 131.662 86.115L135.361 85.9202C136.334 85.8813 137.19 86.6213 137.229 87.595L137.619 94.6836C137.657 95.6573 136.918 96.5142 135.945 96.5532L128.587 96.9426C128.236 96.9426 127.925 96.8647 127.613 96.709L126.368 95.9689C125.901 95.6963 125.589 95.19 125.55 94.6447L125.239 88.1403Z" fill="white"/>
<path d="M145.093 97.9552C144.665 97.8773 144.626 98.3836 144.198 99.2405C143.769 100.097 142.757 102.317 142.563 102.59C142.368 102.863 143.575 99.7468 143.886 98.9289C144.198 98.111 144.548 96.8647 144.548 96.1246C144.548 95.3846 143.925 95.112 143.692 95.7352C143.458 96.4362 142.563 98.6563 142.368 99.1626C142.095 99.9026 140.811 102.123 140.967 101.772C141.278 101.071 142.796 96.9036 143.108 95.9688C143.419 95.0341 143.224 94.6057 142.913 94.4888C142.524 94.333 142.057 95.1899 141.628 96.2804C141.2 97.371 140.889 98.111 140.499 98.8121C140.11 99.5131 139.37 100.954 139.409 100.643C139.448 100.292 140.811 97.0983 141.005 96.2804C141.239 95.4625 141.083 94.9562 140.733 94.9172C140.344 94.8783 140.227 95.112 139.799 95.9299C139.409 96.7478 138.475 99.7468 137.657 100.721C137.307 101.149 136.762 101.811 136.334 102.395C136.178 102.59 136.022 102.824 135.828 103.019C135.789 103.057 135.75 103.096 135.711 103.135C135.672 103.135 135.672 103.174 135.633 103.174C135.399 103.369 135.088 103.486 134.816 103.408C134.699 103.369 134.543 103.33 134.426 103.291L131.468 103.447C131.818 103.953 132.246 104.576 132.441 105.044C132.713 105.706 132.713 105.862 132.558 106.485C132.519 106.719 129.093 111.743 129.093 111.743L133.959 115.871C133.959 115.871 136.684 110.652 137.93 110.029C139.176 109.406 139.993 108.705 140.694 107.848C141.395 106.991 141.706 105.979 142.952 104.031C143.341 103.213 144.431 101.266 144.782 99.9805C145.054 99.3574 145.521 98.0331 145.093 97.9552Z" fill="#FFBEB0"/>
<path d="M109.667 103.058C109.589 102.045 109.238 100.993 109.472 100.331C109.589 99.9806 109.55 99.0458 109.511 98.15C110.406 98.1111 111.263 99.3964 111.341 99.669C111.613 100.565 113.91 101.616 114.299 101.811C114.689 102.006 117.491 101.694 117.491 101.694C117.491 101.694 119.166 100.604 119.749 100.292C120.645 99.7859 121.307 100.37 121.229 100.799C121.112 101.227 119.204 103.33 118.543 103.681C118.037 103.953 117.258 104.849 116.791 105.317C116.324 105.784 115.506 106.407 115.311 106.602C114.105 107.848 113.637 110.185 113.637 110.185L109.277 105.433C109.861 104.615 109.783 104.07 109.667 103.058Z" fill="#FFBEB0"/>
<path d="M140.305 45.7644L92.1479 42.8823C89.9678 42.7654 88.4495 40.8959 88.722 38.7148C88.9946 36.5337 90.9411 34.8978 93.1212 35.0147L141.278 37.8969C143.458 38.0137 144.976 39.8832 144.704 42.0643C144.431 44.2454 142.446 45.8813 140.305 45.7644Z" fill="url(#paint41_linear_952_17666)"/>
<path d="M94.9899 37.8969C95.6906 37.9359 96.1578 38.3643 96.2356 39.0264L95.457 38.9875C95.3792 38.7149 95.1456 38.598 94.8731 38.5591C94.4448 38.5201 94.0945 38.8317 94.0166 39.377C93.9387 39.9223 94.2113 40.2728 94.6395 40.2728C94.912 40.2728 95.1456 40.156 95.3013 39.9223L96.0799 39.9612C95.8074 40.5844 95.2624 40.9739 94.5616 40.9349C93.7052 40.896 93.1601 40.2339 93.2769 39.338C93.4327 38.4422 94.1334 37.8191 94.9899 37.8969Z" fill="white"/>
<path d="M96.8196 38.0137L97.5203 38.0526L97.2867 39.8442C97.2478 40.1948 97.3646 40.4285 97.715 40.4285C98.0653 40.4674 98.26 40.2727 98.2989 39.8832L98.5325 38.0916L99.2722 38.1695L99.0386 39.9611C98.9218 40.779 98.2989 41.1685 97.6371 41.1295C96.9364 41.0906 96.4692 40.6622 96.586 39.8442L96.8196 38.0137Z" fill="white"/>
<path d="M100.44 41.2854C99.8172 41.2465 99.3501 40.8959 99.4279 40.3117L100.207 40.3506C100.207 40.5843 100.323 40.7012 100.518 40.7012C100.713 40.7012 100.868 40.6233 100.907 40.4285C100.985 39.8833 99.4669 40.078 99.6226 39.0264C99.7004 38.4422 100.207 38.1695 100.829 38.2085C101.452 38.2474 101.842 38.598 101.803 39.1822L101.024 39.1432C101.024 38.9485 100.907 38.8317 100.713 38.8317C100.557 38.8317 100.401 38.9096 100.362 39.1043C100.284 39.6106 101.764 39.4548 101.647 40.4675C101.569 40.8959 101.102 41.3244 100.44 41.2854Z" fill="white"/>
<path d="M102.192 38.3254L104.45 38.4423L104.372 39.0265L103.593 38.9876L103.282 41.4024L102.581 41.3634L102.893 38.9486L102.114 38.9097L102.192 38.3254Z" fill="white"/>
<path d="M105.812 41.5971C104.995 41.5581 104.372 40.857 104.489 39.9612C104.606 39.0654 105.384 38.4812 106.202 38.5201C107.058 38.5591 107.603 39.2212 107.486 40.117C107.37 41.0518 106.63 41.636 105.812 41.5971ZM105.89 40.9349C106.357 40.9739 106.708 40.6234 106.786 40.117C106.864 39.5718 106.591 39.2212 106.124 39.2212C105.657 39.1823 105.306 39.4939 105.229 40.0391C105.151 40.5455 105.423 40.896 105.89 40.9349Z" fill="white"/>
<path d="M108.109 38.676L108.966 38.715L109.511 40.8182L110.601 38.7929L111.457 38.8318L111.068 41.8308L110.367 41.7919L110.601 40.0003L109.706 41.7529L109.122 41.714L108.693 39.8834L108.46 41.6751L107.759 41.6361L108.109 38.676Z" fill="white"/>
<path d="M113.676 39.5717L112.586 39.4938L112.509 40.117L113.482 40.1559L113.404 40.7012L112.431 40.6622L112.353 41.3244L113.443 41.4023L113.365 41.9865L111.574 41.8696L111.964 38.8706L113.754 38.9874L113.676 39.5717Z" fill="white"/>
<path d="M115.389 39.1043C116.09 39.1432 116.402 39.5716 116.363 40.1169C116.324 40.5064 116.051 40.818 115.584 40.9348L116.09 42.1422L115.273 42.1033L114.805 40.9348H114.65L114.494 42.0643L113.793 42.0254L114.183 39.0264L115.389 39.1043ZM115.273 39.6885L114.844 39.6495L114.728 40.3896L115.156 40.4285C115.428 40.4285 115.584 40.3117 115.584 40.078C115.662 39.8832 115.545 39.7274 115.273 39.6885Z" fill="white"/>
<path d="M117.803 39.2212L119.711 39.338L119.633 39.9223L118.426 39.8444L118.348 40.4675L119.243 40.5065L119.166 41.0907L118.27 41.0518L118.114 42.2592L117.414 42.2202L117.803 39.2212Z" fill="white"/>
<path d="M121.852 40.0392L120.762 39.9613L120.684 40.5845L121.657 40.6234L121.579 41.1687L120.606 41.1298L120.528 41.7919L121.618 41.8698L121.54 42.454L119.75 42.3372L120.139 39.3381L121.93 39.455L121.852 40.0392Z" fill="white"/>
<path d="M124.11 40.195L123.02 40.1171L122.942 40.7402L123.915 40.7792L123.837 41.3245L122.864 41.2855L122.786 41.9476L123.876 42.0255L123.798 42.6098L122.007 42.4929L122.397 39.4939L124.188 39.6107L124.11 40.195Z" fill="white"/>
<path d="M127.068 41.2854C126.952 42.1812 126.251 42.7265 125.316 42.6875L124.226 42.6096L124.616 39.6106L125.706 39.6885C126.679 39.7664 127.185 40.3896 127.068 41.2854ZM125.394 42.0643C125.939 42.1033 126.29 41.7917 126.368 41.2464C126.445 40.7012 126.173 40.3506 125.628 40.3117L125.278 40.2727L125.044 42.0254L125.394 42.0643Z" fill="white"/>
<path d="M128.665 42.8823L127.302 42.8044L127.691 39.8054L129.015 39.8833C129.599 39.9223 129.91 40.2339 129.871 40.7012C129.832 41.0518 129.56 41.2855 129.287 41.3634C129.638 41.4413 129.794 41.7918 129.755 42.1034C129.677 42.6097 129.287 42.9213 128.665 42.8823ZM128.665 41.636L128.158 41.597L128.081 42.2592L128.626 42.2981C128.859 42.2981 129.015 42.2202 129.054 41.9865C129.054 41.7528 128.937 41.636 128.665 41.636ZM128.781 40.4675L128.314 40.4286L128.236 41.0518L128.703 41.0907C128.937 41.0907 129.093 41.0128 129.093 40.8181C129.132 40.5844 129.015 40.4675 128.781 40.4675Z" fill="white"/>
<path d="M131.935 42.5319L130.845 42.454L130.611 42.9603L129.871 42.9214L131.351 40.0002L132.168 40.0392L132.83 43.0772L132.09 43.0382L131.935 42.5319ZM131.623 40.8571L131.117 41.9477L131.857 41.9866L131.623 40.8571Z" fill="white"/>
<path d="M134.893 40.195C135.594 40.2339 136.061 40.6623 136.139 41.3245L135.361 41.2855C135.283 41.0129 135.049 40.896 134.816 40.8571C134.387 40.8181 134.037 41.1297 133.959 41.675C133.881 42.2203 134.154 42.5708 134.582 42.5708C134.855 42.5708 135.088 42.454 135.244 42.2203L136.022 42.2592C135.75 42.8824 135.205 43.2719 134.504 43.2329C133.648 43.194 133.103 42.5319 133.219 41.636C133.336 40.7402 133.998 40.156 134.893 40.195Z" fill="white"/>
<path d="M137.19 42.0255L136.996 43.3497L136.295 43.3108L136.684 40.3118L137.385 40.3507L137.229 41.675L138.397 40.4286L139.254 40.4676L137.93 41.8697L138.903 43.4666L138.047 43.4276L137.19 42.0255Z" fill="white"/>
<path d="M134.387 49.7372L133.375 51.4899C133.297 51.6457 133.141 51.7236 132.947 51.7626L130.922 51.9183C130.494 51.9573 130.261 52.4636 130.572 52.8142L131.896 54.3331C132.012 54.45 132.051 54.6447 132.012 54.8005L131.545 56.7479C131.428 57.1764 131.896 57.5659 132.285 57.3711L134.115 56.5532C134.27 56.4753 134.465 56.4753 134.621 56.5922L136.334 57.6438C136.723 57.8775 137.19 57.5659 137.151 57.1374L136.957 55.1511C136.957 54.9563 136.995 54.8005 137.151 54.6837L138.669 53.3984C139.02 53.1258 138.864 52.5415 138.436 52.4636L136.45 52.0352C136.295 51.9962 136.139 51.8794 136.061 51.7236L135.283 49.8541C135.166 49.3867 134.582 49.3478 134.387 49.7372Z" fill="url(#paint42_linear_952_17666)"/>
<path d="M124.499 49.0751L123.487 50.8278C123.409 50.9836 123.253 51.0615 123.059 51.1004L121.034 51.2562C120.606 51.2952 120.372 51.8015 120.684 52.152L122.007 53.671C122.124 53.7879 122.163 53.9826 122.124 54.1384L121.657 56.0858C121.54 56.5143 122.007 56.9038 122.397 56.709L124.226 55.8911C124.382 55.8132 124.577 55.8132 124.733 55.93L126.445 56.9817C126.835 57.2153 127.302 56.9038 127.263 56.4753L127.068 54.489C127.068 54.2942 127.107 54.1384 127.263 54.0216L128.781 52.7363C129.132 52.4636 128.976 51.8794 128.548 51.8015L126.562 51.3731C126.407 51.3341 126.251 51.2173 126.173 51.0615L125.394 49.192C125.278 48.7246 124.694 48.6856 124.499 49.0751Z" fill="url(#paint43_linear_952_17666)"/>
<path d="M114.611 48.3741L113.598 50.1267C113.521 50.2825 113.365 50.3604 113.17 50.3994L111.146 50.5552C110.718 50.5941 110.484 51.1005 110.796 51.451L112.119 52.97C112.236 53.0868 112.275 53.2816 112.236 53.4374L111.769 55.3848C111.652 55.8132 112.119 56.2027 112.508 56.0079L114.338 55.19C114.494 55.1121 114.689 55.1121 114.844 55.229L116.557 56.2806C116.946 56.5143 117.414 56.2027 117.375 55.7743L117.18 53.7879C117.18 53.5932 117.219 53.4374 117.375 53.3205L118.893 52.0352C119.243 51.7626 119.088 51.1783 118.659 51.1004L116.674 50.672C116.518 50.6331 116.363 50.5162 116.285 50.3604L115.506 48.4909C115.389 48.0625 114.844 48.0235 114.611 48.3741Z" fill="url(#paint44_linear_952_17666)"/>
<path d="M104.722 47.7118L103.71 49.4645C103.632 49.6203 103.477 49.6982 103.282 49.7372L101.258 49.893C100.829 49.9319 100.596 50.4382 100.907 50.7888L102.231 52.3078C102.348 52.4246 102.387 52.6193 102.348 52.7751L101.88 54.7226C101.764 55.151 102.231 55.5405 102.62 55.3457L104.45 54.5278C104.606 54.4499 104.8 54.4499 104.956 54.5668L106.669 55.6184C107.058 55.8521 107.525 55.5405 107.486 55.112L107.292 53.1257C107.292 52.9309 107.331 52.7751 107.486 52.6583L109.005 51.373C109.355 51.1004 109.199 50.5161 108.771 50.4382L106.786 50.0098C106.63 49.9709 106.474 49.854 106.396 49.6982L105.618 47.8287C105.501 47.3613 104.956 47.3224 104.722 47.7118Z" fill="url(#paint45_linear_952_17666)"/>
<path d="M94.8341 47.0497L93.8219 48.8024C93.744 48.9582 93.5883 49.0361 93.3936 49.0751L91.3693 49.2308C90.941 49.2698 90.7075 49.7761 91.0189 50.1267L92.3425 51.6456C92.4593 51.7625 92.4982 51.9572 92.4593 52.113L91.9921 54.0604C91.8754 54.4889 92.3425 54.8784 92.7318 54.6836L94.5615 53.8657C94.7173 53.7878 94.9119 53.7878 95.0676 53.9047L96.7806 54.9563C97.1699 55.19 97.637 54.8784 97.5981 54.4499L97.4035 52.4636C97.4035 52.2688 97.4424 52.113 97.5981 51.9962L99.1164 50.7109C99.4668 50.4382 99.311 49.854 98.8828 49.7761L96.8974 49.3477C96.7416 49.3087 96.5859 49.1919 96.5081 49.0361L95.7295 47.1666C95.6127 46.6992 95.0676 46.6603 94.8341 47.0497Z" fill="url(#paint46_linear_952_17666)"/>
<path d="M64.7799 72.6388C66.5318 71.3924 66.7654 67.3808 67.8554 66.7576C68.9844 66.1344 71.6706 65.4333 72.2545 64.6154C72.8385 63.7975 73.0331 65.8228 73.1499 66.7576C73.2667 67.7313 72.2934 67.5366 72.1767 68.3934C72.0988 69.2503 72.6049 69.7177 71.6316 70.3019C70.6973 70.8472 67.1157 75.2094 67.1157 75.2094L65.5196 73.223L64.7799 72.6388Z" fill="#FFBEB0"/>
<path d="M73.8896 67.5755C73.4614 67.6924 71.2813 68.1597 70.347 68.8608C69.4126 69.5619 68.1669 70.6914 68.1669 70.6914C68.1669 70.6914 68.4004 68.705 68.673 68.0818C69.2569 66.8744 71.6706 64.6544 72.6439 64.4596C73.5782 64.2649 75.6804 65.4333 75.6804 65.4333L73.8896 67.5755Z" fill="#C68C8F"/>
<path d="M47.5727 85.4919C49.2467 84.674 51.1932 83.3497 55.5145 79.9223C57.8503 78.0527 63.6509 73.7295 64.8188 72.6389C65.6753 73.4179 65.7142 72.6 66.5317 73.3789C66.9989 73.8463 67.505 74.3137 67.9722 74.7421C65.9089 77.5854 57.5778 87.5172 52.5169 91.7626C48.8185 94.8785 44.7697 94.0216 41.85 94.2163C38.9302 94.4111 32.0006 93.8658 32.0006 93.8658L35.6601 85.8814C35.5043 85.5308 44.2247 87.1667 47.5727 85.4919Z" fill="#FFBEB0"/>
<path d="M76.2644 50.9056L63.3784 51.7236C62.4052 51.8014 61.8991 52.931 62.5609 53.671L71.0477 63.4081C71.3202 63.7197 71.3981 64.1091 71.3202 64.4986L68.1279 77.04C67.8944 77.9748 68.8287 78.7927 69.763 78.4422L81.6367 73.3789C81.9871 73.2231 82.4153 73.262 82.7268 73.4568L93.6273 80.3896C94.4448 80.9348 95.5348 80.2727 95.457 79.299L94.2891 66.4071C94.2501 66.0176 94.4059 65.6281 94.7173 65.3944L104.645 57.1374C105.384 56.5142 105.112 55.2679 104.138 55.0731L91.525 52.1909C91.1357 52.113 90.8243 51.8404 90.6686 51.4899L85.8801 39.4938C85.5298 38.5979 84.2451 38.4811 83.7779 39.338L77.1598 50.4383C77.004 50.6719 76.6537 50.8667 76.2644 50.9056Z" fill="url(#paint47_linear_952_17666)"/>
<path d="M65.0135 72.4441C65.0135 72.4441 67.2325 74.2747 67.6607 77.5463C67.6607 77.5463 57.9671 90.5161 52.0497 94.372C46.7941 97.7605 32.7014 104.615 29.3534 105.278C26.0054 105.94 21.723 105.745 19.8933 100.097C18.0247 94.4499 20.7887 89.5814 23.5528 88.8803C26.3168 88.1792 34.4532 87.3224 37.1005 87.0887C41.1103 86.7771 48.3124 84.8686 48.3124 84.8686C48.3124 84.8686 53.1008 80.6622 57.6946 77.7021C61.354 75.3652 65.0135 72.4441 65.0135 72.4441Z" fill="url(#paint48_linear_952_17666)"/>
<path d="M66.4928 71.9768C67.0768 71.081 67.5828 70.1073 67.8943 69.0946C67.9332 69.0946 67.9332 69.0557 67.9721 69.0557C68.2836 69.3673 68.595 69.6009 68.6729 69.6788C68.9843 69.9515 71.6705 70.341 71.6705 70.341C71.6705 70.341 73.5002 69.7178 74.1231 69.562C75.0575 69.2894 75.5636 69.9904 75.3689 70.4189C75.1742 70.8083 72.8774 72.2884 72.1377 72.4831C71.5927 72.6389 70.6583 73.2621 70.1133 73.5737C69.5683 73.9242 68.634 74.2747 68.4393 74.3916C68.1668 74.5474 67.8943 74.7811 67.6607 75.0148C67.3103 73.9632 66.8821 72.9505 66.4928 71.9768Z" fill="#FFBEB0"/>
<path d="M46.2491 71.5873C46.0934 72.2494 45.9377 76.7674 44.7698 77.8579C43.6018 78.9485 41.1492 76.1442 40.6821 77.2737C40.2149 78.4032 42.2782 85.6087 42.2782 85.6087L29.8984 86.7771L29.9373 76.5337C29.9373 76.5337 28.8862 72.4831 30.0541 66.9913C31.222 61.4996 41.0324 57.4879 41.0324 57.4879C41.4607 57.1764 41.9668 54.9952 42.7843 55.7742C44.069 56.9427 44.7698 61.227 45.2758 63.3691C45.7819 65.5113 46.4438 70.9251 46.2491 71.5873Z" fill="#FFBEB0"/>
<path d="M16.1171 186.563C15.7278 180.097 15.3385 170.555 15.6499 162.999C16.1949 148.432 18.1025 142.317 18.1025 142.317L49.675 144.421C50.6872 154.197 55.826 180.058 56.7603 184.187C35.2708 194.197 21.8009 186.68 16.1171 186.563Z" fill="url(#paint49_linear_952_17666)"/>
<path d="M51.6604 95.6574C53.6069 100.721 49.4025 111.821 49.2078 117.235C48.9742 123.895 53.7237 141.305 55.2809 143.174C55.2809 143.174 50.8818 148.627 36.0883 148.705C21.2948 148.783 15.7667 144.927 15.7667 144.927C15.7667 144.927 19.504 131.1 19.0758 123.233C18.6476 115.365 17.4407 100.487 19.3872 93.2816C20.0101 90.9836 22.5017 85.4529 22.5017 85.4529L39.9035 85.1414C39.9035 85.1414 50.2589 91.9963 51.6604 95.6574Z" fill="url(#paint50_linear_952_17666)"/>
<path d="M20.6719 66.7577C20.3215 60.2533 23.0856 54.9953 29.7427 54.1774C31.9617 53.0479 34.4532 52.4636 36.4387 52.4636C42.395 52.4636 44.3026 57.6438 44.3026 57.6438C44.3026 57.8775 44.2636 58.0722 44.1858 58.228C44.653 59.9028 44.3415 61.967 43.7576 63.9534C43.7576 63.9534 44.4972 79.4159 45.5094 81.4023C46.7941 84.0508 47.962 88.8414 39.5142 90.8278C30.4434 92.931 21.4505 92.6973 18.8811 88.1793C16.2339 83.5055 21.0612 73.7684 20.6719 66.7577Z" fill="url(#paint51_linear_952_17666)"/>
<path d="M64.5074 94.372C66.3761 94.0604 70.7752 90.6329 75.1743 87.3223C77.5491 85.5307 83.155 80.74 84.3619 79.4158C85.6076 80.9737 85.2183 82.3759 86.6977 83.6611C84.1672 87.517 80.5467 91.2561 78.3277 94.0604C77.3544 95.3067 74.5904 96.9815 71.3592 99.2795C69.8798 100.331 64.5464 101.733 63.612 101.811C61.4709 101.967 50.4536 103.486 50.4536 103.486C51.1933 99.3574 50.9597 99.7858 51.6604 95.6962C51.5047 95.2678 61.977 94.8004 64.5074 94.372Z" fill="#FFBEB0"/>
<path d="M98.3767 73.4956C97.9874 73.3009 97.8317 73.7683 97.2478 74.5083C96.6249 75.2094 95.1455 77.04 94.9119 77.2347C94.6784 77.4294 96.547 74.8199 97.0531 74.1578C97.5592 73.4567 98.1821 72.4051 98.3767 71.704C98.5714 71.003 98.0264 70.6135 97.676 71.1587C97.2867 71.7819 95.8852 73.6125 95.6127 74.0409C95.1845 74.6641 93.4715 76.4168 93.6662 76.1441C94.1333 75.5599 96.547 72.0156 97.0531 71.2366C97.5592 70.4577 97.4813 69.9903 97.2478 69.8345C96.8974 69.6008 96.2745 70.2629 95.6127 71.1977C94.9509 72.1325 94.4837 72.7556 93.9387 73.3009C93.3937 73.8462 92.3815 75.0146 92.4983 74.7809C92.6151 74.4694 94.6394 71.7819 95.0677 71.0808C95.4959 70.3798 95.457 69.8345 95.1455 69.7177C94.7951 69.6008 94.6005 69.7566 94.0165 70.4187C93.4326 71.0809 91.8364 73.6514 90.8632 74.3915C90.435 74.703 89.7342 75.2094 89.2281 75.6378C89.0724 75.7936 88.8388 75.9494 88.6052 76.0662C88.5663 76.1052 88.5274 76.1052 88.4495 76.1441C88.4106 76.1441 88.4106 76.1831 88.3717 76.1831C88.3717 76.1831 88.3717 76.1831 88.3327 76.1831C88.0602 76.2999 87.7488 76.3389 87.5152 76.222C87.3984 76.1441 87.2816 76.1052 87.2037 76.0273L84.4786 74.5862C84.6733 75.1704 84.829 76.6894 84.9069 77.1957C85.0237 77.8579 84.6733 78.9095 84.4008 79.4548C84.3229 79.6495 80.2352 83.5443 80.2352 83.5443L83.739 87.6729C83.739 87.6729 87.5541 83.4664 88.8388 83.1549C90.1624 82.8433 91.0968 82.4148 91.9532 81.7917C92.8097 81.1685 93.3547 80.2727 94.9898 78.7537C95.5348 78.0916 97.0531 76.5336 97.676 75.4041C97.9874 74.7809 98.766 73.6514 98.3767 73.4956Z" fill="#FFBEB0"/>
<path d="M83.5833 80.1558C83.5833 80.1558 85.3741 82.7264 85.8023 85.998C85.8023 85.998 76.1476 99.2794 70.2302 101.305C64.3128 103.369 48.585 106.29 45.1591 106.056C41.7332 105.823 37.957 104.499 37.6456 98.5394C37.3341 92.5803 42.0057 92.074 44.8087 92.1519C47.6506 92.1908 57.1496 93.2424 59.7969 93.1256C62.4441 93.0087 66.6097 92.3466 66.6097 92.3466C66.6097 92.3466 71.476 89.3865 76.0697 86.4264C79.846 84.0116 83.5833 80.1558 83.5833 80.1558Z" fill="url(#paint52_linear_952_17666)"/>
</g>
<defs>
<radialGradient id="paint0_radial_952_17666" cx="0" cy="0" r="1" gradientUnits="userSpaceOnUse" gradientTransform="translate(88.0413 -1.67226) rotate(2.00094) scale(183.893 183.979)">
<stop offset="0.7774" stop-color="#FF7B7B"/>
<stop offset="1" stop-color="#D10D38"/>
</radialGradient>
<linearGradient id="paint1_linear_952_17666" x1="63.4763" y1="115.21" x2="71.616" y2="95.8517" gradientUnits="userSpaceOnUse">
<stop stop-color="#7C87AB"/>
<stop offset="1" stop-color="white" stop-opacity="0"/>
</linearGradient>
<linearGradient id="paint2_linear_952_17666" x1="43.1039" y1="141.199" x2="51.8028" y2="121.005" gradientUnits="userSpaceOnUse">
<stop offset="0.4335" stop-color="#7C87AB"/>
<stop offset="1" stop-color="white" stop-opacity="0"/>
</linearGradient>
<linearGradient id="paint3_linear_952_17666" x1="42.6507" y1="134.946" x2="36.5379" y2="110.185" gradientUnits="userSpaceOnUse">
<stop stop-color="#7C87AB"/>
<stop offset="1" stop-color="white" stop-opacity="0"/>
</linearGradient>
<linearGradient id="paint4_linear_952_17666" x1="68.4965" y1="139.125" x2="76.0026" y2="112.866" gradientUnits="userSpaceOnUse">
<stop stop-color="#7C87AB"/>
<stop offset="1" stop-color="white" stop-opacity="0"/>
</linearGradient>
<linearGradient id="paint5_linear_952_17666" x1="160.337" y1="124.083" x2="179.47" y2="133.21" gradientUnits="userSpaceOnUse">
<stop offset="0.1966" stop-color="#7C87AB"/>
<stop offset="1" stop-color="white" stop-opacity="0"/>
</linearGradient>
<linearGradient id="paint6_linear_952_17666" x1="154.673" y1="118.543" x2="175.247" y2="114.366" gradientUnits="userSpaceOnUse">
<stop stop-color="#7C87AB"/>
<stop offset="1" stop-color="white" stop-opacity="0"/>
</linearGradient>
<linearGradient id="paint7_linear_952_17666" x1="149.946" y1="150.67" x2="197.556" y2="140.24" gradientUnits="userSpaceOnUse">
<stop offset="0.1966" stop-color="#7C87AB"/>
<stop offset="1" stop-color="white" stop-opacity="0"/>
</linearGradient>
<linearGradient id="paint8_linear_952_17666" x1="58.2085" y1="153.543" x2="63.5196" y2="138.628" gradientUnits="userSpaceOnUse">
<stop stop-color="#7C87AB"/>
<stop offset="1" stop-color="white" stop-opacity="0"/>
</linearGradient>
<linearGradient id="paint9_linear_952_17666" x1="53.1921" y1="167.932" x2="53.7685" y2="136.11" gradientUnits="userSpaceOnUse">
<stop stop-color="#7C87AB"/>
<stop offset="1" stop-color="white" stop-opacity="0"/>
</linearGradient>
<linearGradient id="paint10_linear_952_17666" x1="58.9755" y1="98.1956" x2="168.772" y2="98.1956" gradientUnits="userSpaceOnUse">
<stop stop-color="#9EAACD"/>
<stop offset="0.2701" stop-color="#95A6CC"/>
<stop offset="1" stop-color="#819CC9"/>
</linearGradient>
<linearGradient id="paint11_linear_952_17666" x1="55.6379" y1="173.235" x2="64.378" y2="173.235" gradientUnits="userSpaceOnUse">
<stop stop-color="#9EAACD"/>
<stop offset="0.2701" stop-color="#95A6CC"/>
<stop offset="1" stop-color="#819CC9"/>
</linearGradient>
<linearGradient id="paint12_linear_952_17666" x1="159.274" y1="24.1364" x2="167.185" y2="24.1364" gradientUnits="userSpaceOnUse">
<stop stop-color="#9EAACD"/>
<stop offset="0.2701" stop-color="#95A6CC"/>
<stop offset="1" stop-color="#819CC9"/>
</linearGradient>
<linearGradient id="paint13_linear_952_17666" x1="159.051" y1="8.03488" x2="67.3439" y2="168.092" gradientUnits="userSpaceOnUse">
<stop stop-color="#E3EAFF"/>
<stop offset="0.3959" stop-color="#D3E1FD"/>
<stop offset="1" stop-color="#BFD5FB"/>
</linearGradient>
<linearGradient id="paint14_linear_952_17666" x1="120.08" y1="9.95164" x2="118.337" y2="25.924" gradientUnits="userSpaceOnUse">
<stop stop-color="#9EAACD"/>
<stop offset="0.2701" stop-color="#95A6CC"/>
<stop offset="1" stop-color="#819CC9"/>
</linearGradient>
<linearGradient id="paint15_linear_952_17666" x1="111.159" y1="58.7509" x2="53.4464" y2="118.438" gradientUnits="userSpaceOnUse">
<stop stop-color="#E3EAFF"/>
<stop offset="0.3959" stop-color="#D3E1FD"/>
<stop offset="1" stop-color="#BFD5FB"/>
</linearGradient>
<linearGradient id="paint16_linear_952_17666" x1="122.29" y1="69.5132" x2="64.577" y2="129.2" gradientUnits="userSpaceOnUse">
<stop stop-color="#E3EAFF"/>
<stop offset="0.3959" stop-color="#D3E1FD"/>
<stop offset="1" stop-color="#BFD5FB"/>
</linearGradient>
<linearGradient id="paint17_linear_952_17666" x1="135.299" y1="82.0925" x2="77.5864" y2="141.779" gradientUnits="userSpaceOnUse">
<stop stop-color="#E3EAFF"/>
<stop offset="0.3959" stop-color="#D3E1FD"/>
<stop offset="1" stop-color="#BFD5FB"/>
</linearGradient>
<linearGradient id="paint18_linear_952_17666" x1="139.435" y1="86.0914" x2="81.7221" y2="145.778" gradientUnits="userSpaceOnUse">
<stop stop-color="#E3EAFF"/>
<stop offset="0.3959" stop-color="#D3E1FD"/>
<stop offset="1" stop-color="#BFD5FB"/>
</linearGradient>
<linearGradient id="paint19_linear_952_17666" x1="137.585" y1="84.3022" x2="79.8717" y2="143.989" gradientUnits="userSpaceOnUse">
<stop stop-color="#E3EAFF"/>
<stop offset="0.3959" stop-color="#D3E1FD"/>
<stop offset="1" stop-color="#BFD5FB"/>
</linearGradient>
<linearGradient id="paint20_linear_952_17666" x1="135.697" y1="82.4766" x2="77.9838" y2="142.163" gradientUnits="userSpaceOnUse">
<stop stop-color="#E3EAFF"/>
<stop offset="0.3959" stop-color="#D3E1FD"/>
<stop offset="1" stop-color="#BFD5FB"/>
</linearGradient>
<linearGradient id="paint21_linear_952_17666" x1="148.618" y1="94.9703" x2="90.9046" y2="154.657" gradientUnits="userSpaceOnUse">
<stop stop-color="#E3EAFF"/>
<stop offset="0.3959" stop-color="#D3E1FD"/>
<stop offset="1" stop-color="#BFD5FB"/>
</linearGradient>
<linearGradient id="paint22_linear_952_17666" x1="131.015" y1="77.9501" x2="73.3022" y2="137.637" gradientUnits="userSpaceOnUse">
<stop stop-color="#E3EAFF"/>
<stop offset="0.3959" stop-color="#D3E1FD"/>
<stop offset="1" stop-color="#BFD5FB"/>
</linearGradient>
<linearGradient id="paint23_linear_952_17666" x1="140.633" y1="47.236" x2="82.9198" y2="106.923" gradientUnits="userSpaceOnUse">
<stop stop-color="#E3EAFF"/>
<stop offset="0.3959" stop-color="#D3E1FD"/>
<stop offset="1" stop-color="#BFD5FB"/>
</linearGradient>
<linearGradient id="paint24_linear_952_17666" x1="138.783" y1="45.4467" x2="81.0696" y2="105.133" gradientUnits="userSpaceOnUse">
<stop stop-color="#E3EAFF"/>
<stop offset="0.3959" stop-color="#D3E1FD"/>
<stop offset="1" stop-color="#BFD5FB"/>
</linearGradient>
<linearGradient id="paint25_linear_952_17666" x1="136.895" y1="43.6214" x2="79.1819" y2="103.308" gradientUnits="userSpaceOnUse">
<stop stop-color="#E3EAFF"/>
<stop offset="0.3959" stop-color="#D3E1FD"/>
<stop offset="1" stop-color="#BFD5FB"/>
</linearGradient>
<linearGradient id="paint26_linear_952_17666" x1="149.816" y1="56.1151" x2="92.1027" y2="115.802" gradientUnits="userSpaceOnUse">
<stop stop-color="#E3EAFF"/>
<stop offset="0.3959" stop-color="#D3E1FD"/>
<stop offset="1" stop-color="#BFD5FB"/>
</linearGradient>
<linearGradient id="paint27_linear_952_17666" x1="204.553" y1="24.1711" x2="199.692" y2="50.0406" gradientUnits="userSpaceOnUse">
<stop stop-color="#9E6C4A"/>
<stop offset="1" stop-color="#80432A"/>
</linearGradient>
<linearGradient id="paint28_linear_952_17666" x1="197.664" y1="59.7508" x2="198.628" y2="53.7298" gradientUnits="userSpaceOnUse">
<stop stop-color="white" stop-opacity="0"/>
<stop offset="0.1016" stop-color="#FFF8F6" stop-opacity="0.1016"/>
<stop offset="0.7049" stop-color="#FED3C1" stop-opacity="0.7049"/>
<stop offset="1" stop-color="#FEC4AD"/>
</linearGradient>
<linearGradient id="paint29_linear_952_17666" x1="194.619" y1="22.2732" x2="189.739" y2="48.2467" gradientUnits="userSpaceOnUse">
<stop stop-color="#9E6C4A"/>
<stop offset="1" stop-color="#80432A"/>
</linearGradient>
<linearGradient id="paint30_linear_952_17666" x1="197.238" y1="150.854" x2="216.324" y2="55.7921" gradientUnits="userSpaceOnUse">
<stop stop-color="#1C73E0"/>
<stop offset="1" stop-color="#6EB4FF"/>
</linearGradient>
<linearGradient id="paint31_linear_952_17666" x1="182.442" y1="147.883" x2="201.528" y2="52.8215" gradientUnits="userSpaceOnUse">
<stop stop-color="#1C73E0"/>
<stop offset="1" stop-color="#6EB4FF"/>
</linearGradient>
<linearGradient id="paint32_linear_952_17666" x1="193.989" y1="22.1862" x2="189.128" y2="48.0556" gradientUnits="userSpaceOnUse">
<stop stop-color="#9E6C4A"/>
<stop offset="1" stop-color="#80432A"/>
</linearGradient>
<linearGradient id="paint33_linear_952_17666" x1="202.882" y1="23.8573" x2="198.021" y2="49.7268" gradientUnits="userSpaceOnUse">
<stop stop-color="#9E6C4A"/>
<stop offset="1" stop-color="#80432A"/>
</linearGradient>
<linearGradient id="paint34_linear_952_17666" x1="154.174" y1="68.5102" x2="153.625" y2="65.9512" gradientUnits="userSpaceOnUse">
<stop stop-color="white" stop-opacity="0"/>
<stop offset="0.1016" stop-color="#FFF8F6" stop-opacity="0.1016"/>
<stop offset="0.7049" stop-color="#FED3C1" stop-opacity="0.7049"/>
<stop offset="1" stop-color="#FEC4AD"/>
</linearGradient>
<linearGradient id="paint35_linear_952_17666" x1="151.749" y1="63.2193" x2="152.886" y2="60.5783" gradientUnits="userSpaceOnUse">
<stop stop-color="white" stop-opacity="0"/>
<stop offset="0.1016" stop-color="#FFF8F6" stop-opacity="0.1016"/>
<stop offset="0.7049" stop-color="#FED3C1" stop-opacity="0.7049"/>
<stop offset="1" stop-color="#FEC4AD"/>
</linearGradient>
<linearGradient id="paint36_linear_952_17666" x1="81.9044" y1="124.815" x2="84.2819" y2="136.794" gradientUnits="userSpaceOnUse">
<stop stop-color="#FF6672"/>
<stop offset="1" stop-color="#D12C80"/>
</linearGradient>
<linearGradient id="paint37_linear_952_17666" x1="110.985" y1="133.335" x2="101.625" y2="146.677" gradientUnits="userSpaceOnUse">
<stop stop-color="#FF6672"/>
<stop offset="1" stop-color="#D12C80"/>
</linearGradient>
<linearGradient id="paint38_linear_952_17666" x1="88.5326" y1="124.177" x2="88.7764" y2="128.65" gradientUnits="userSpaceOnUse">
<stop stop-color="#FF6672"/>
<stop offset="1" stop-color="#D12C80"/>
</linearGradient>
<linearGradient id="paint39_linear_952_17666" x1="94.4128" y1="129.658" x2="89.8967" y2="181.429" gradientUnits="userSpaceOnUse">
<stop stop-color="#FF6672"/>
<stop offset="1" stop-color="#D12C80"/>
</linearGradient>
<linearGradient id="paint40_linear_952_17666" x1="133.25" y1="103.366" x2="120.396" y2="71.6051" gradientUnits="userSpaceOnUse">
<stop stop-color="#1C73E0"/>
<stop offset="1" stop-color="#6EB4FF"/>
</linearGradient>
<linearGradient id="paint41_linear_952_17666" x1="113.554" y1="29.9997" x2="126.073" y2="71.3635" gradientUnits="userSpaceOnUse">
<stop stop-color="#1C73E0"/>
<stop offset="1" stop-color="#6EB4FF"/>
</linearGradient>
<linearGradient id="paint42_linear_952_17666" x1="137.019" y1="48.172" x2="106.609" y2="110.882" gradientUnits="userSpaceOnUse">
<stop stop-color="#E3EAFF"/>
<stop offset="0.3959" stop-color="#D3E1FD"/>
<stop offset="1" stop-color="#BFD5FB"/>
</linearGradient>
<linearGradient id="paint43_linear_952_17666" x1="128.748" y1="44.1615" x2="98.3389" y2="106.872" gradientUnits="userSpaceOnUse">
<stop stop-color="#E3EAFF"/>
<stop offset="0.3959" stop-color="#D3E1FD"/>
<stop offset="1" stop-color="#BFD5FB"/>
</linearGradient>
<linearGradient id="paint44_linear_952_17666" x1="120.478" y1="40.1511" x2="90.0685" y2="102.861" gradientUnits="userSpaceOnUse">
<stop stop-color="#E3EAFF"/>
<stop offset="0.3959" stop-color="#D3E1FD"/>
<stop offset="1" stop-color="#BFD5FB"/>
</linearGradient>
<linearGradient id="paint45_linear_952_17666" x1="112.207" y1="36.1405" x2="81.7981" y2="98.8506" gradientUnits="userSpaceOnUse">
<stop stop-color="#E3EAFF"/>
<stop offset="0.3959" stop-color="#D3E1FD"/>
<stop offset="1" stop-color="#BFD5FB"/>
</linearGradient>
<linearGradient id="paint46_linear_952_17666" x1="103.937" y1="32.1301" x2="73.5277" y2="94.8401" gradientUnits="userSpaceOnUse">
<stop stop-color="#E3EAFF"/>
<stop offset="0.3959" stop-color="#D3E1FD"/>
<stop offset="1" stop-color="#BFD5FB"/>
</linearGradient>
<linearGradient id="paint47_linear_952_17666" x1="96.8246" y1="43.0766" x2="75.8611" y2="69.9553" gradientUnits="userSpaceOnUse">
<stop stop-color="#FFDF3B"/>
<stop offset="1" stop-color="#FF980C"/>
</linearGradient>
<linearGradient id="paint48_linear_952_17666" x1="49.1794" y1="71.4946" x2="38.5299" y2="98.4319" gradientUnits="userSpaceOnUse">
<stop stop-color="#CF74F1"/>
<stop offset="1" stop-color="#7D22BE"/>
</linearGradient>
<linearGradient id="paint49_linear_952_17666" x1="48.5967" y1="189.569" x2="17.8731" y2="142.494" gradientUnits="userSpaceOnUse">
<stop stop-color="#34315E"/>
<stop offset="1" stop-color="#13193D"/>
</linearGradient>
<linearGradient id="paint50_linear_952_17666" x1="14.7436" y1="152.428" x2="44.5066" y2="105.535" gradientUnits="userSpaceOnUse">
<stop stop-color="#CF74F1"/>
<stop offset="1" stop-color="#7D22BE"/>
</linearGradient>
<linearGradient id="paint51_linear_952_17666" x1="45.5466" y1="54.2997" x2="24.6394" y2="88.1874" gradientUnits="userSpaceOnUse">
<stop stop-color="#8C4C38"/>
<stop offset="1" stop-color="#6E271D"/>
</linearGradient>
<linearGradient id="paint52_linear_952_17666" x1="70.1195" y1="81.0404" x2="49.4393" y2="105.492" gradientUnits="userSpaceOnUse">
<stop stop-color="#CF74F1"/>
<stop offset="1" stop-color="#7D22BE"/>
</linearGradient>
<clipPath id="clip0_952_17666">
<rect width="230" height="200" fill="white"/>
</clipPath>
</defs>
</svg>
