<svg width="227" height="197" viewBox="0 0 227 197" fill="none" xmlns="http://www.w3.org/2000/svg">
<path d="M89.943 138.03V134.562C89.943 132.504 88.297 130.858 86.2395 130.858H86.1219C84.5347 130.858 83.1826 129.859 82.5947 128.389C82.3596 127.802 82.1832 127.272 81.8893 126.743C81.2427 125.333 81.4778 123.628 82.5947 122.511L82.7123 122.393C84.182 120.924 84.182 118.572 82.7123 117.161L80.2433 114.692C78.7737 113.223 76.4222 113.223 75.0114 114.692L74.8938 114.81C73.7769 115.927 72.0721 116.162 70.6612 115.515C70.1321 115.28 69.5443 115.045 69.0152 114.81C67.5456 114.281 66.5462 112.87 66.5462 111.283V111.165C66.5462 109.108 64.9002 107.462 62.8427 107.462H59.3743C57.3168 107.462 55.6708 109.108 55.6708 111.165V111.283C55.6708 112.87 54.6715 114.222 53.2018 114.81C52.6139 115.045 52.0849 115.221 51.5558 115.515C50.1449 116.162 48.4402 115.927 47.3232 114.81L47.2057 114.692C45.736 113.223 43.3846 113.223 41.9737 114.692L39.5047 117.161C38.0351 118.631 38.0351 120.982 39.5047 122.393L39.6223 122.511C40.7392 123.628 40.9744 125.333 40.3277 126.743C40.0926 127.272 39.8574 127.86 39.6223 128.389C39.0932 129.859 37.6823 130.858 36.0951 130.858H35.9776C33.92 130.858 32.274 132.504 32.274 134.562V138.03C32.274 140.088 33.92 141.734 35.9776 141.734H36.0951C37.6823 141.734 39.0344 142.733 39.6223 144.203C39.8574 144.791 40.0338 145.32 40.3277 145.849C40.9744 147.26 40.7392 148.964 39.6223 150.081L39.5047 150.199C38.0351 151.669 38.0351 154.02 39.5047 155.431L41.9737 157.9C43.4434 159.37 45.7948 159.37 47.2057 157.9L47.3232 157.782C48.4402 156.665 50.1449 156.43 51.5558 157.077C52.0849 157.312 52.6727 157.547 53.2018 157.782C54.6715 158.311 55.6708 159.722 55.6708 161.31V161.427C55.6708 163.485 57.3168 165.131 59.3743 165.131H62.8427C64.9002 165.131 66.5462 163.485 66.5462 161.427V161.31C66.5462 159.722 67.5456 158.37 69.0152 157.782C69.6031 157.547 70.1321 157.371 70.6612 157.077C72.0721 156.43 73.7769 156.665 74.8938 157.782L75.0114 157.9C76.481 159.37 78.8324 159.37 80.2433 157.9L82.7123 155.431C84.182 153.961 84.182 151.61 82.7123 150.199L82.5947 150.081C81.4778 148.964 81.2427 147.26 81.8893 145.849C82.1244 145.32 82.3596 144.732 82.5947 144.203C83.1238 142.733 84.5347 141.734 86.1219 141.734H86.2395C88.297 141.734 89.943 140.088 89.943 138.03Z" stroke="white" stroke-width="1.7919" stroke-miterlimit="10"/>
<path d="M71.6642 146.884C77.5182 141.03 77.5182 131.539 71.6642 125.685C65.8101 119.831 56.3188 119.831 50.4648 125.685C44.6107 131.539 44.6107 141.03 50.4648 146.884C56.3188 152.738 65.8101 152.738 71.6642 146.884Z" stroke="white" stroke-width="1.7919" stroke-miterlimit="10"/>
<path d="M178.886 93.7646H150.551C149.669 92.4713 149.199 90.8841 149.199 89.1793C149.199 84.594 152.903 80.8905 157.429 80.7729C157.899 73.3659 164.013 67.4873 171.538 67.4873C178.063 67.4873 183.53 71.8962 185.176 77.8924C186.058 77.6573 186.998 77.4809 187.939 77.4809C193.582 77.4809 198.226 82.0074 198.344 87.6509C198.756 87.5333 199.167 87.4745 199.579 87.4745C202.165 87.4745 204.223 89.532 204.223 92.1186C204.223 92.7064 204.105 93.2355 203.929 93.7646H214.51" stroke="white" stroke-width="1.7919" stroke-miterlimit="10"/>
<path d="M68.3098 33.9795H108.167" stroke="white" stroke-width="1.7919" stroke-miterlimit="10"/>
<path d="M68.3098 41.6216H108.167" stroke="white" stroke-width="1.7919" stroke-miterlimit="10"/>
<path d="M68.3098 49.2639H108.167" stroke="white" stroke-width="1.7919" stroke-miterlimit="10"/>
<path d="M111.811 86.7104C111.811 89.5909 109.46 92.0011 106.521 92.0011H6.29073C3.41022 92.0011 1 89.6496 1 86.7104V25.9846C1 23.1041 3.35143 20.6938 6.29073 20.6938H106.521C109.401 20.6938 111.811 23.0453 111.811 25.9846V86.7104Z" stroke="white" stroke-width="1.7919" stroke-miterlimit="10"/>
<path d="M66.0171 56.4943C66.0171 71.3084 54.0248 83.3007 39.2108 83.3007C24.3967 83.3007 12.4044 71.3084 12.4044 56.4943C12.4044 41.6803 24.3967 29.688 39.2108 29.688" stroke="white" stroke-width="1.7919" stroke-miterlimit="10"/>
<path d="M39.2108 36.1548C50.4389 36.1548 59.5507 45.2666 59.5507 56.4947C59.5507 67.7228 50.4389 76.8346 39.2108 76.8346" stroke="white" stroke-width="1.7919" stroke-miterlimit="10"/>
<path d="M23.8089 56.4947C23.8089 48.0296 30.6868 41.1516 39.152 41.1516C47.6172 41.1516 54.4951 48.0296 54.4951 56.4947C54.4951 64.9599 47.6172 71.8378 39.152 71.8378" stroke="white" stroke-width="1.7919" stroke-miterlimit="10"/>
<path d="M48.3226 56.4946C48.3226 61.4914 44.2664 65.6064 39.2108 65.6064C34.1552 65.6064 30.099 61.5502 30.099 56.4946C30.099 51.439 34.1552 47.3828 39.2108 47.3828" stroke="white" stroke-width="1.7919" stroke-miterlimit="10"/>
<path d="M38.329 20.6939L57.0229 2L75.7168 20.6939H38.329Z" stroke="white" stroke-width="1.7919" stroke-miterlimit="10"/>
<path d="M174.536 45.6779H202.871C203.752 44.3846 204.223 42.7974 204.223 41.0926C204.223 36.5073 200.519 32.8038 195.993 32.6862C195.522 25.2792 189.409 19.4006 181.884 19.4006C175.359 19.4006 169.892 23.8096 168.246 29.8057C167.364 29.5706 166.423 29.3942 165.483 29.3942C159.839 29.3942 155.195 33.9207 155.078 39.5642C154.666 39.4466 154.255 39.3878 153.843 39.3878C151.257 39.3878 149.199 41.4453 149.199 44.0319C149.199 44.6198 149.317 45.1488 149.493 45.6779H138.912" stroke="white" stroke-width="1.7919" stroke-miterlimit="10"/>
<path d="M193.994 182.767H55.083V87.4749C55.083 84.9472 57.1405 82.8896 59.6683 82.8896H189.467C191.995 82.8896 194.053 84.9472 194.053 87.4749V182.767H193.994Z" fill="#46738C"/>
<path d="M187.41 92.4128H61.7847V182.708H187.41V92.4128Z" fill="#3C5A73"/>
<path d="M21.6339 182.767H193.935C193.935 188.528 189.232 193.231 183.471 193.231H32.0978C26.3368 193.231 21.6339 188.528 21.6339 182.767Z" fill="#87AFB9"/>
<path d="M21.6339 182.767H133.562C136.443 182.767 138.794 185.118 138.794 187.999C138.794 190.879 136.443 193.231 133.562 193.231H32.0978C26.3368 193.231 21.6339 188.528 21.6339 182.767Z" fill="white"/>
<path d="M181.002 189.468H164.307C163.484 189.468 162.779 188.822 162.779 187.94C162.779 187.117 163.425 186.411 164.307 186.411H181.002C181.825 186.411 182.531 187.058 182.531 187.94C182.472 188.822 181.825 189.468 181.002 189.468Z" fill="#3C5A73"/>
<path d="M151.903 189.468H156.018C156.841 189.468 157.547 188.822 157.547 187.94C157.547 187.117 156.9 186.411 156.018 186.411H151.903C151.08 186.411 150.375 187.058 150.375 187.94C150.375 188.822 151.08 189.468 151.903 189.468Z" fill="#3C5A73"/>
<path d="M86.7687 186.47H53.9661C51.9086 186.47 50.2626 184.824 50.2626 182.767H90.4722C90.4722 184.824 88.8262 186.47 86.7687 186.47Z" fill="#A5C8CD"/>
<path d="M175.829 63.4314H73.3066V182.708H175.829V63.4314Z" fill="#B9CDD2"/>
<path d="M167.599 177.711H81.3016C79.7144 177.711 78.4211 176.418 78.4211 174.83V76.129C78.4211 74.5418 79.7144 73.2485 81.3016 73.2485H167.54C169.128 73.2485 170.421 74.5418 170.421 76.129V174.83C170.48 176.418 169.187 177.711 167.599 177.711Z" fill="white"/>
<path d="M82.1246 70.8384H77.4217C76.8927 70.8384 76.4224 70.3681 76.4224 69.839V66.8997C76.4224 66.3707 76.8927 65.9004 77.4217 65.9004H82.1246C82.6537 65.9004 83.124 66.3707 83.124 66.8997V69.839C83.124 70.3681 82.6537 70.8384 82.1246 70.8384Z" fill="#9BB9C3"/>
<path d="M91.8242 70.8384H87.1213C86.5922 70.8384 86.1219 70.3681 86.1219 69.839V66.8997C86.1219 66.3707 86.5922 65.9004 87.1213 65.9004H91.8242C92.3533 65.9004 92.8235 66.3707 92.8235 66.8997V69.839C92.8235 70.3681 92.412 70.8384 91.8242 70.8384Z" fill="#9BB9C3"/>
<path d="M101.583 70.8384H96.8799C96.3508 70.8384 95.8805 70.3681 95.8805 69.839V66.8997C95.8805 66.3707 96.3508 65.9004 96.8799 65.9004H101.583C102.112 65.9004 102.582 66.3707 102.582 66.8997V69.839C102.582 70.3681 102.112 70.8384 101.583 70.8384Z" fill="#9BB9C3"/>
<path d="M170.48 68.3694H109.401V70.8384H170.48V68.3694Z" fill="#9BB9C3"/>
<path d="M109.284 126.92H86.1219V169.893H119.101V137.09L109.284 126.92Z" fill="#B4D7DC"/>
<path d="M185.646 195.582H2.46972C1.82308 195.582 1.29401 195.053 1.29401 194.406C1.29401 193.76 1.82308 193.231 2.46972 193.231H185.646C186.293 193.231 186.822 193.76 186.822 194.406C186.822 195.053 186.293 195.582 185.646 195.582Z" fill="white"/>
<path d="M211.336 167.188V175.477" stroke="#177D74" stroke-width="1.7919" stroke-miterlimit="10"/>
<path d="M214.04 170.245V176.418" stroke="#177D74" stroke-width="1.7919" stroke-miterlimit="10"/>
<path d="M198.697 174.831C198.697 174.831 199.402 171.597 199.461 167.188" stroke="#1C9585" stroke-width="1.7919" stroke-miterlimit="10"/>
<path d="M196.581 174.302C196.581 174.302 196.992 162.192 190.055 152.257" stroke="#1C9585" stroke-width="1.7919" stroke-miterlimit="10"/>
<path d="M100.701 50.381C101.112 52.556 102.406 62.6084 100.289 63.0199C98.1731 63.4314 94.8223 53.9669 94.4108 51.7918C93.9993 49.6168 95.4102 47.5592 97.4677 47.1477C99.584 46.7362 100.289 48.2059 100.701 50.381Z" fill="#0073AA"/>
<path d="M98.2907 59.3752C99.8779 59.3752 101.23 60.3158 101.23 61.6091C101.23 62.8436 99.9367 63.9018 98.3495 63.9018C96.7623 63.9018 82.83 63.3727 82.83 62.1382C82.7712 60.9037 96.6447 59.434 98.2907 59.3752Z" fill="#0073AA"/>
<path d="M73.1891 63.4315H82.4772L78.0683 61.374L72.4836 61.6092L73.1891 63.4315Z" fill="#FAB9AF"/>
<path d="M73.3067 64.9601C73.3067 64.4898 73.3655 63.9607 73.3655 63.3729C73.0716 62.9026 73.1304 61.7856 73.777 61.4917C73.0716 60.7863 72.2486 61.139 72.0722 61.6681C71.8959 62.2559 71.8959 64.431 72.0722 65.6655C72.131 66.1358 72.3661 66.3709 72.5425 66.3709C72.8952 66.3122 73.3655 65.6067 73.3067 64.9601Z" fill="#6C9BAA"/>
<path d="M158.076 169.599H125.097V137.09L132.739 126.626H158.076V169.599Z" fill="#B4D7DC"/>
<path d="M132.739 126.626C132.739 126.626 132.916 134.504 133.503 135.973C130.564 137.266 125.097 137.09 125.097 137.09L132.739 126.626Z" fill="#A5C8CD"/>
<path d="M158.664 175.477L160.604 178.711C160.604 178.711 161.25 178.946 161.544 179.24C161.721 179.416 161.956 179.651 162.132 179.827C162.25 179.945 162.25 180.121 162.191 180.239L161.721 180.944C161.603 181.062 160.662 182.296 160.369 182.355C159.604 182.59 158.252 183.002 158.193 182.884C158.076 182.59 158.605 182.12 159.075 181.709C159.546 181.356 159.839 180.768 159.781 180.121L159.722 179.298L158.37 177.241L158.664 175.477Z" fill="#FAB9AF"/>
<path d="M160.369 182.414C160.662 182.296 161.603 181.121 161.721 181.003L162.191 180.298C162.308 180.18 162.25 180.004 162.132 179.886C162.015 179.768 161.838 179.592 161.662 179.416C161.25 180.827 160.075 181.708 158.722 182.002C158.37 182.296 158.017 182.649 158.135 182.884C158.311 183.06 159.663 182.649 160.369 182.414Z" fill="#965028"/>
<path d="M27.101 177.711C27.101 177.711 27.5712 179.533 27.3361 180.356C27.2185 180.709 27.1597 181.062 27.101 181.415C27.0422 181.826 26.9246 182.179 26.9246 182.179C26.8658 182.414 27.101 182.708 27.3361 182.708C28.6294 182.767 31.8626 182.825 31.9802 182.708C32.3917 182.061 30.5105 181.826 29.1585 181.238C27.924 180.709 28.3942 175.948 28.3942 175.948L27.101 177.711Z" fill="#FA968C"/>
<path d="M29.1585 181.238C28.8058 181.356 28.453 181.415 28.0415 181.415C27.6888 181.415 27.3949 181.356 27.101 181.297L26.9246 182.179C26.8658 182.414 27.101 182.708 27.3361 182.708C28.6294 182.767 31.8626 182.825 31.9802 182.708C32.3917 182.002 30.5105 181.767 29.1585 181.238Z" fill="#46738C"/>
<path d="M28.8646 170.128C28.9234 170.951 28.747 174.184 28.6295 175.477C28.5707 176.183 28.4531 179.945 28.4531 179.945C28.4531 179.945 27.3362 179.651 27.0422 177.476C26.7483 175.477 25.8665 171.421 25.5138 169.893C24.7496 166.307 26.1017 165.131 26.9835 165.131C27.924 165.131 28.747 167.365 28.8646 170.128Z" fill="#FA968C"/>
<path d="M15.7553 160.252C17.8128 160.957 28.5707 164.778 28.0416 166.424C27.5125 168.011 15.579 167.6 13.5215 166.953C11.464 166.248 10.5822 163.544 11.1113 161.957C11.5816 160.311 13.6978 159.546 15.7553 160.252Z" fill="#FA968C"/>
<path d="M28.8646 170.128C28.8058 168.893 28.9234 166.248 27.3362 164.955C24.9259 162.956 17.4601 160.722 15.8141 160.193C13.7566 159.487 11.6403 160.252 11.1113 161.898C10.5822 163.485 11.464 166.189 13.5215 166.894C14.756 167.306 19.694 167.6 23.4563 167.424C24.3969 167.365 25.2787 168.07 25.3962 169.011C25.6902 171.127 26.7483 175.418 27.2186 179.004H28.5119C28.5119 179.004 28.6294 176.241 28.6294 175.477C28.6882 174.243 28.8646 171.01 28.8646 170.128Z" fill="#B48255"/>
<path d="M14.8735 160.017C13.1099 159.782 11.5227 160.546 11.0524 161.898C10.5234 163.485 11.4051 166.189 13.4627 166.895C14.2269 167.13 16.4607 167.365 18.9297 167.424C15.5789 165.837 15.285 162.721 14.8735 160.017Z" fill="#A56941"/>
<path d="M17.3425 147.907C17.5777 148.436 17.8716 149.024 18.1655 149.612C18.4595 150.2 18.8122 150.729 19.1649 151.258C19.8703 152.316 20.6933 153.315 21.6339 154.079C22.5745 154.844 23.6914 155.314 24.8671 155.314C26.0428 155.314 27.2773 154.785 28.3943 154.079C28.6294 153.962 28.8646 154.021 29.0409 154.197C29.1585 154.373 29.1585 154.608 28.9821 154.785C27.924 155.784 26.6307 156.666 25.0435 156.901C23.4563 157.136 21.7515 156.725 20.4582 155.902C19.1061 155.138 17.9892 154.079 16.9898 152.962C16.5195 152.375 16.0493 151.787 15.6378 151.199C15.2263 150.552 14.8735 149.964 14.462 149.259C14.0505 148.495 14.3445 147.554 15.1087 147.143C15.8729 146.731 16.8135 147.025 17.225 147.789C17.2838 147.789 17.2838 147.848 17.3425 147.907Z" fill="#FA968C"/>
<path d="M19.1649 151.258C18.8122 150.729 18.4595 150.141 18.1655 149.612C17.8716 149.083 17.5189 148.436 17.3425 147.907C17.3425 147.848 17.2837 147.848 17.2837 147.789C16.8722 147.025 15.9317 146.731 15.1675 147.143C14.4032 147.554 14.1093 148.495 14.5208 149.259C14.8735 149.964 15.285 150.552 15.6965 151.199C15.9905 151.61 16.2844 152.022 16.5783 152.433C16.7547 152.139 18.6358 151.493 19.1649 151.258Z" fill="#7DAF93"/>
<path d="M17.754 161.839L8.28951 164.543C7.70165 163.838 8.58344 160.781 8.7598 157.606C8.99494 154.197 9.11251 150.434 9.17129 148.436C9.17129 147.613 9.87672 146.966 10.6997 146.966H15.7553C16.5195 146.966 17.1662 147.554 17.225 148.318C17.3425 149.905 16.8722 152.786 17.1074 155.49C17.4013 158.253 17.754 161.839 17.754 161.839Z" fill="#FAB9AF"/>
<path d="M11.6991 177.006C11.0524 178.534 5.46777 190.291 4.99748 189.939C4.58598 189.645 7.8192 177.123 8.46585 175.595C9.11249 174.066 10.4058 173.185 11.2876 173.537C12.1694 173.89 12.3457 175.477 11.6991 177.006Z" fill="#41B4E6"/>
<path d="M14.6972 162.956C14.7559 165.131 12.816 177.594 11.1112 177.652C9.40643 177.711 8.34828 165.249 8.28949 163.073C8.23071 160.898 9.87671 159.135 11.5815 159.135C13.2275 159.076 14.6384 160.781 14.6972 162.956Z" fill="#41B4E6"/>
<path d="M5.58542 186.411L4.35092 189.703C4.29213 189.821 4.23334 189.939 4.11577 190.056C3.93941 190.174 3.64549 190.409 3.46913 190.644C3.35156 190.82 3.11641 191.114 2.99884 191.291C2.88127 191.408 2.94005 191.585 3.05763 191.702L3.64548 192.29C3.76306 192.408 4.93878 193.407 5.2327 193.466C5.99692 193.583 7.34899 193.701 7.40778 193.524C7.46657 193.231 6.93749 192.878 6.40842 192.584C5.87935 192.29 5.46785 191.761 5.40906 191.173C5.35027 190.644 5.40906 190.115 5.6442 189.645L6.29085 188.116L5.58542 186.411Z" fill="#FAB9AF"/>
<path d="M6.34958 192.643C5.93808 192.467 5.64415 192.114 5.46779 191.702C4.40965 191.82 3.82179 190.938 3.82179 190.233C3.64543 190.35 3.52786 190.527 3.41029 190.644C3.29271 190.821 3.05757 191.114 2.94 191.291C2.82243 191.408 2.88122 191.585 2.99879 191.702L3.58665 192.29C3.70422 192.408 4.87993 193.466 5.17386 193.466C5.93808 193.583 7.34894 193.642 7.40773 193.466C7.5253 193.231 6.87865 192.878 6.34958 192.643Z" fill="#46738C"/>
<path d="M8.46583 175.536C8.05433 176.477 5.76168 184.472 4.82111 188.352C5.35018 188.528 5.52654 188.704 6.05561 188.881C7.64283 185.824 11.3463 179.181 12.0518 177.652C13.3451 175.771 15.285 164.778 15.2262 162.78C15.1674 160.605 13.2275 159.076 11.5227 159.135C9.8179 159.194 8.23069 160.957 8.23069 163.074C8.28947 164.484 8.75976 174.948 8.46583 175.536Z" fill="#C8A06E"/>
<path d="M15.8141 146.907H14.9911C14.6971 147.554 14.1093 148.083 13.1687 148.083C12.2281 148.083 11.6403 147.554 11.3463 146.907H10.5821C9.81791 146.907 9.17127 147.495 9.17127 148.259C9.11248 150.258 8.99491 154.079 8.75977 157.547C8.52463 160.663 7.70162 163.602 8.28948 164.484L19.8115 161.604C19.8115 161.604 17.1074 159.546 17.1661 155.49C17.2249 152.727 17.4013 149.847 17.2837 148.259C17.2249 147.495 16.5783 146.907 15.8141 146.907Z" fill="#1C9585"/>
<path d="M29.9227 153.491C29.9227 153.491 28.6294 153.374 28.4531 153.785C28.2767 154.197 28.2179 154.491 28.8058 154.726C29.3936 155.02 30.2754 155.079 30.8045 155.079C31.3336 155.02 32.2154 154.55 32.3329 154.432C32.5681 154.021 31.5687 154.197 31.0984 154.256C30.6281 154.314 30.0403 154.373 30.0991 154.079C30.1579 153.844 31.0396 153.785 31.216 153.491C31.2748 153.315 29.9227 153.491 29.9227 153.491Z" fill="#FA968C"/>
<path d="M12.6984 144.85L12.2282 145.026C11.7579 145.202 11.17 144.967 10.9937 144.497L10.1707 142.263L11.5227 141.734L12.6984 144.85Z" fill="#3C5A73"/>
<path d="M14.5208 146.907L11.9342 147.201L12.1693 144.497L13.9917 144.38L14.5208 146.907Z" fill="#FAB9AF"/>
<path d="M13.9917 144.38L12.1694 144.497L12.0518 145.791C12.5221 146.143 13.2275 146.731 13.8742 146.614C14.0505 146.555 14.2269 146.496 14.4033 146.32L13.9917 144.38Z" fill="#FA968C"/>
<path d="M14.2268 145.438C13.1099 145.849 11.8166 145.32 11.4051 144.144L10.5233 141.852L14.0505 140.5C14.0505 140.5 14.7559 142.263 14.9323 143.557C15.1086 144.615 14.8147 145.203 14.2268 145.438Z" fill="#FAB9AF"/>
<path d="M11.3163 142.566L10.6572 142.818L10.7619 143.092L11.421 142.841L11.3163 142.566Z" fill="#3C5A73"/>
<path d="M11.8755 143.498C12.0519 143.968 11.9931 144.38 11.6991 144.497C11.464 144.615 10.9349 144.145 10.7586 143.674C10.5822 143.204 10.8174 142.969 11.1113 142.851C11.3464 142.792 11.6991 143.086 11.8755 143.498Z" fill="#FAB9AF"/>
<path d="M14.6971 141.382C14.6971 141.088 14.5796 140.735 14.4032 140.5L13.4626 138.854C13.2863 139.442 12.816 139.853 12.2281 140.088L11.0524 140.559C10.347 140.852 9.99426 141.617 10.2294 142.322L10.347 142.616L11.1112 142.91L11.4639 143.38H11.5227C11.7578 143.321 11.8754 143.028 11.8166 142.792C11.6991 142.44 11.8166 142.028 12.2281 141.852L13.2863 141.44C13.9329 141.205 14.4032 141.44 14.5796 141.911L14.6971 142.322V141.382Z" fill="#3C5A73"/>
<path d="M104.992 141.911C105.051 141.969 105.169 142.028 105.227 142.028C107.285 143.028 109.93 134.974 109.636 135.738C109.813 135.209 110.577 135.444 110.518 135.973C108.461 147.73 102.582 145.908 98.8785 138.09C97.938 136.15 100.995 134.798 101.759 136.855C102.464 138.56 103.523 140.853 104.992 141.911Z" fill="#FA968C"/>
<path d="M103.699 140.147C103.346 139.618 102.994 139.03 102.7 138.501C102.406 137.972 102.053 137.325 101.877 136.796C101.877 136.737 101.818 136.737 101.818 136.679C101.406 135.914 100.466 135.621 99.7016 136.032C98.9374 136.444 98.6435 137.384 99.055 138.148C99.4077 138.854 99.8192 139.442 100.231 140.088C100.525 140.5 100.819 140.911 101.112 141.323C101.289 141.029 103.17 140.323 103.699 140.147Z" fill="#177D74"/>
<path d="M102.171 151.14C100.819 152.727 92.8237 153.374 92.8237 153.374C92.2358 152.668 93.3528 148.847 93.5291 145.732C93.7643 142.322 93.6467 139.324 93.7055 137.325C93.7055 136.502 94.4109 135.855 95.2339 135.855H100.289C101.054 135.855 101.7 136.443 101.759 137.208C101.935 138.736 101.877 148.847 102.171 151.14Z" fill="#FAB9AF"/>
<path d="M97.5853 177.535V180.651L97.2914 182.179C97.2326 182.414 97.4677 182.708 97.7029 182.708C98.9962 182.767 102.229 182.826 102.347 182.708C102.758 182.061 100.877 181.767 99.5252 181.238C98.1732 180.709 99.1137 175.536 99.1137 175.536L97.5853 177.535Z" fill="#FA968C"/>
<path d="M99.5839 181.238C99.2312 181.356 98.8785 181.415 98.467 181.415C98.1143 181.415 97.8204 181.356 97.5264 181.297L97.3501 182.179C97.2913 182.414 97.5264 182.708 97.7616 182.708C99.0549 182.767 102.288 182.825 102.406 182.708C102.817 182.002 100.936 181.767 99.5839 181.238Z" fill="#55879B"/>
<path d="M102.171 152.257C102.229 154.432 101.348 168.188 99.7016 168.247C97.9968 168.305 96.1157 154.549 96.0569 152.374C95.9981 150.199 97.3502 148.436 98.9962 148.377C100.701 148.377 102.112 150.082 102.171 152.257Z" fill="#0091C8"/>
<path d="M97.3502 165.425C97.1738 166.601 97.1738 174.302 97.409 178.181H98.9374C99.7604 174.419 100.642 167.071 100.819 165.895V165.836C101.759 161.78 102.171 153.844 102.171 152.257C102.112 150.082 100.701 148.377 99.055 148.377C97.3502 148.436 96.0569 150.199 96.1157 152.374C96.1157 153.785 97.409 164.837 97.3502 165.425Z" fill="#0073AA"/>
<path d="M97.9381 160.134C98.1732 157.43 99.9368 155.314 102.112 153.726C102.112 153.08 102.171 152.551 102.171 152.257C102.112 150.082 100.701 148.377 99.055 148.377C97.3502 148.436 96.0569 150.199 96.1157 152.374C96.1157 153.197 96.6448 157.783 96.9975 161.251C97.3502 160.957 97.5266 160.428 97.9381 160.134Z" fill="#00558C"/>
<path d="M93.8818 177.535V180.651L93.5879 182.179C93.5291 182.414 93.7642 182.708 93.9994 182.708C95.2927 182.767 98.5259 182.826 98.6435 182.708C99.055 182.061 97.1738 181.767 95.8217 181.238C94.4697 180.709 95.4102 175.536 95.4102 175.536L93.8818 177.535Z" fill="#FA968C"/>
<path d="M95.8805 181.238C95.5277 181.356 95.175 181.415 94.7635 181.415C94.4108 181.415 94.1169 181.356 93.8229 181.297L93.6466 182.179C93.5878 182.414 93.8229 182.708 94.0581 182.708C95.3514 182.767 98.5846 182.825 98.7022 182.708C99.1137 182.002 97.2325 181.767 95.8805 181.238Z" fill="#6C9BAA"/>
<path d="M98.467 152.257C98.5258 154.432 97.644 168.188 95.998 168.247C94.2932 168.305 92.7648 154.491 92.7648 152.316C92.706 150.141 93.7054 148.377 95.3514 148.377C96.9974 148.377 98.4082 150.082 98.467 152.257Z" fill="#0091C8"/>
<path d="M93.6465 165.425C93.4702 166.601 93.4702 174.302 93.7053 178.182H95.2338C96.0568 174.419 96.9386 167.071 97.1149 165.895V165.837C98.0555 161.78 98.8785 153.844 98.8197 152.198C98.7609 150.023 96.9973 148.318 95.2925 148.377C93.5878 148.436 92.6472 150.141 92.706 152.316C92.7648 153.727 93.7641 164.837 93.6465 165.425Z" fill="#0091C8"/>
<path d="M100.348 135.797H99.5251C99.2311 136.444 98.6433 136.973 97.7027 136.973C96.7621 136.973 96.1743 136.444 95.8804 135.797H95.1161C94.3519 135.797 93.7053 136.385 93.7053 137.149C93.6465 139.148 93.5289 142.969 93.2938 146.437C93.0586 149.553 92.412 150.905 92.7059 153.374C92.7059 153.374 99.7602 154.373 102.17 152.845C102.406 150.846 101.877 138.677 101.759 137.09C101.759 136.385 101.112 135.797 100.348 135.797Z" fill="#1C9585"/>
<path d="M110.812 134.621C110.812 134.621 111.047 135.914 110.695 136.149C110.342 136.385 110.048 136.443 109.695 135.914C109.401 135.385 109.166 134.503 109.166 133.974C109.166 133.445 109.519 132.505 109.636 132.446C110.048 132.211 109.93 133.21 109.93 133.68C109.93 134.151 109.93 134.739 110.165 134.68C110.401 134.621 110.401 133.68 110.636 133.563C110.871 133.21 110.812 134.621 110.812 134.621Z" fill="#FA968C"/>
<path d="M111.518 137.267C111.929 136.914 112.517 137.502 112.164 137.913C105.404 146.378 97.1151 143.498 93.4116 138.325C92.1771 136.62 94.8224 134.798 95.9981 136.502C99.4077 141.44 104.875 142.734 111.518 137.267Z" fill="#FAB9AF"/>
<path d="M98.4082 138.854C97.3501 137.913 95.8804 136.208 95.8804 136.208C95.8804 136.208 95.2338 135.444 93.9405 136.032C93.4702 136.208 93.2938 136.561 93.1763 136.855C93.0587 137.325 93.1175 137.795 93.2939 138.207C93.6466 138.854 94.4696 140.088 96.2331 141.381C96.2331 141.381 98.5846 139.03 98.4082 138.854Z" fill="#177D74"/>
<path d="M97.5265 133.975H97.4089C96.7035 134.151 95.998 133.681 95.8217 132.975L95.4102 131.035L96.821 130.741L97.5265 133.975Z" fill="#965028"/>
<path d="M98.7608 135.797H96.1155L96.8797 133.152L98.7021 133.387L98.7608 135.797Z" fill="#FAB9AF"/>
<path d="M98.7022 133.387L96.8798 133.152L96.5271 134.386C96.9386 134.856 97.5265 135.562 98.1731 135.562C98.4082 135.562 98.5846 135.503 98.761 135.385L98.7022 133.387Z" fill="#FA968C"/>
<path d="M98.9374 134.797C97.7617 135.033 96.5859 134.327 96.292 133.151L95.7629 130.741L99.4665 129.918C99.4665 129.918 99.8779 131.799 99.8779 133.093C99.9367 134.092 99.5252 134.621 98.9374 134.797Z" fill="#FAB9AF"/>
<path d="M96.8799 132.505C96.9975 132.975 96.8211 133.387 96.586 133.445C96.2921 133.504 95.8806 132.975 95.763 132.505C95.6454 132.034 95.9394 131.799 96.2333 131.741C96.5272 131.682 96.7624 132.034 96.8799 132.505Z" fill="#FAB9AF"/>
<path d="M99.9366 130.859C99.9366 130.565 99.8779 130.212 99.7603 129.918C99.4664 129.213 98.6434 128.86 97.8791 129.154C97.8204 129.154 97.7028 129.213 97.644 129.213L96.4095 129.507C95.6453 129.683 95.175 130.388 95.3514 131.153L95.4101 131.447L95.8804 131.858L96.4683 132.446H96.5271C96.7622 132.387 96.9386 132.152 96.8798 131.917C96.821 131.505 96.9974 131.153 97.4089 131.035L98.5258 130.8C99.1724 130.624 99.6427 130.918 99.7603 131.447L99.8191 131.858L99.9366 130.859Z" fill="#965028"/>
<path d="M96.2331 129.977C96.1743 130.683 98.5845 131.506 99.2312 131.623C99.8778 131.682 100.466 131.212 100.524 130.506C100.583 129.801 100.172 129.213 99.5251 129.154C98.8785 129.037 96.2919 129.272 96.2331 129.977Z" fill="#965028"/>
<path d="M145.613 130.388C145.613 130.388 146.025 131.329 145.731 132.328C145.437 133.328 145.613 134.503 146.436 135.385C146.436 135.385 146.613 134.033 146.848 133.328C147.142 132.681 146.965 130.741 145.613 130.388Z" fill="#55696E"/>
<path d="M147.73 129.977C147.73 129.977 146.26 130.918 146.436 132.093C146.436 132.093 145.672 131.564 145.496 129.683C145.378 128.331 147.73 129.977 147.73 129.977Z" fill="#55696E"/>
<path d="M155.666 135.679C154.96 135.386 154.314 134.798 154.078 134.092C153.608 132.917 152.726 131.976 151.668 131.506C151.139 131.271 150.786 130.741 150.786 130.212H149.376V131.329C147.436 131.8 145.907 133.798 145.907 136.209C145.907 138.854 147.671 141.029 149.963 141.147C150.257 143.498 152.021 145.32 154.196 145.32C156.547 145.32 158.487 143.086 158.487 140.382C158.429 138.207 157.312 136.385 155.666 135.679Z" fill="#55696E"/>
<path d="M147.436 137.56C147.024 141.146 143.85 142.44 142.791 142.44C140.616 142.557 138.794 141.969 137.03 140.97L136.207 140.5C135.914 140.323 135.678 140.206 135.443 139.971L133.915 138.913C133.738 138.795 133.68 138.501 133.797 138.266C133.915 138.09 134.15 138.031 134.326 138.09H134.385C135.502 138.56 136.56 139.089 137.677 139.442C138.794 139.794 139.852 140.029 140.91 140.088C142.321 140.147 143.556 139.736 144.026 138.383C144.261 137.737 144.32 137.149 144.32 137.267C144.379 136.385 145.143 135.738 146.025 135.797C146.848 135.914 147.494 136.679 147.436 137.56Z" fill="#FAB9AF"/>
<path d="M144.144 151.14C145.496 152.727 153.491 153.374 153.491 153.374C154.078 152.668 151.315 144.909 151.315 144.909C151.315 144.909 152.609 139.324 152.55 137.267C152.55 136.444 151.845 135.797 151.022 135.797H145.966C145.202 135.797 144.555 136.385 144.496 137.149C144.379 138.736 146.436 144.732 146.436 144.732C146.436 144.732 142.909 149.788 144.144 151.14Z" fill="#FAB9AF"/>
<path d="M150.61 177.417L150.434 180.827L150.728 182.355C150.786 182.59 150.551 182.884 150.316 182.884C149.023 182.943 145.79 183.002 145.672 182.825C145.261 182.179 147.083 181.826 148.494 181.415C149.728 181.003 149.14 176.418 149.14 176.418L150.61 177.417Z" fill="#FA968C"/>
<path d="M148.435 182.179C147.788 182.179 147.201 182.12 146.613 182.002C145.907 182.237 145.437 182.473 145.672 182.825C145.731 182.943 149.023 182.884 150.316 182.884C150.61 182.884 150.786 182.649 150.728 182.355L150.669 181.885C149.963 182.12 149.199 182.179 148.435 182.179Z" fill="#965028"/>
<path d="M150.904 167.424C151.845 168.776 159.487 179.298 159.898 178.887C160.251 178.534 154.725 166.777 153.784 165.425C152.844 164.073 151.374 163.779 150.551 164.367C149.787 164.896 149.963 166.013 150.904 167.424Z" fill="#FAB9AF"/>
<path d="M146.965 166.953C147.142 168.012 148.553 174.008 149.493 177.829C149.963 179.769 150.199 181.18 150.375 181.121C150.845 180.944 150.728 168.012 150.434 166.366C150.14 164.72 149.14 163.544 148.2 163.72C147.201 163.838 146.671 165.307 146.965 166.953Z" fill="#FA968C"/>
<path d="M144.261 152.492C144.379 154.667 146.319 168.305 148.024 168.247C149.728 168.129 150.493 154.314 150.375 152.139C150.257 149.964 148.788 148.318 147.083 148.377C145.437 148.495 144.144 150.317 144.261 152.492Z" fill="#FA968C"/>
<path d="M149.258 178.064C149.434 178.064 150.434 178.064 150.61 178.064C150.728 174.066 150.61 167.482 150.375 166.307C150.375 166.189 150.316 166.072 150.316 165.954C149.905 164.367 149.669 162.662 149.846 161.016C150.257 157.254 150.434 153.197 150.375 152.08C150.257 149.905 148.788 148.259 147.083 148.318C145.378 148.436 144.202 150.082 144.202 152.257C144.202 157.548 149.258 178.005 149.258 178.064Z" fill="#0073AA"/>
<path d="M149.082 160.663C149.317 160.84 149.611 160.957 149.846 161.134V161.075C150.257 157.312 150.434 153.256 150.375 152.139C150.257 149.964 148.788 148.318 147.083 148.377C145.378 148.495 144.202 150.141 144.202 152.316C144.202 152.492 144.202 152.727 144.202 152.904C146.907 154.491 148.729 157.371 149.082 160.663Z" fill="#00558C"/>
<path d="M146.848 151.963C146.907 154.138 149.317 166.542 151.022 166.483C152.726 166.483 153.314 153.962 153.255 151.787C153.197 149.612 151.492 147.907 149.846 147.966C148.141 148.024 146.848 149.788 146.848 151.963Z" fill="#FAB9AF"/>
<path d="M159.604 176.888C158.193 173.479 154.549 166.424 153.785 165.366C153.314 164.72 153.255 153.374 153.255 151.787C153.197 149.612 151.492 147.907 149.846 147.966C148.141 147.966 146.848 149.788 146.848 151.963C146.907 153.785 148.376 163.25 150.904 167.424C151.551 168.541 156.371 175.007 158.664 177.77C158.899 177.535 159.369 177.065 159.604 176.888Z" fill="#0091C8"/>
<path d="M151.668 146.026C151.433 145.261 151.374 144.497 151.551 143.733C151.903 141.911 152.609 138.56 152.55 137.149C152.55 136.385 151.903 135.797 151.139 135.797H150.375C150.081 136.444 149.493 136.973 148.553 136.973C147.612 136.973 147.024 136.444 146.73 135.797H146.025C146.789 137.443 144.438 137.854 145.202 140.852C145.437 141.617 145.672 142.44 145.848 143.086C146.201 144.144 146.025 145.261 145.496 146.202C144.555 147.789 143.321 150.258 144.085 151.14C145.437 152.727 153.432 153.374 153.432 153.374C153.902 152.727 152.432 148.201 151.668 146.026Z" fill="#FF8C46"/>
<path d="M147.73 136.149L150.022 135.914L149.317 133.386L147.847 133.563L147.73 136.149Z" fill="#FAB9AF"/>
<path d="M147.847 133.563L149.317 133.386L149.552 134.151C149.199 134.503 148.788 135.326 148.259 135.326C148.082 135.326 147.906 135.268 147.788 135.209L147.847 133.563Z" fill="#FA968C"/>
<path d="M147.788 134.797C148.317 134.797 148.846 134.562 149.611 133.916C150.022 133.563 150.375 132.858 150.375 132.446V129.977H146.613C146.613 129.977 146.436 130.918 146.495 132.211C146.554 134.033 147.377 134.797 147.788 134.797Z" fill="#FAB9AF"/>
<path d="M149.845 131.204H150.55V130.91H149.845V131.204Z" fill="white"/>
<path d="M149.67 131.917C149.67 132.387 149.905 132.799 150.199 132.799C150.493 132.799 150.786 132.152 150.786 131.682C150.786 131.212 150.493 131.035 150.199 131.035C149.905 131.094 149.67 131.447 149.67 131.917Z" fill="#FAB9AF"/>
<path d="M149.376 128.86H148.082C147.729 128.86 147.377 128.801 147.083 128.625C146.613 128.39 146.025 128.448 145.672 128.919C145.378 129.389 145.26 129.918 146.083 130.506C146.495 130.8 147.083 130.447 147.494 130.624H147.553H148.67C149.082 130.624 149.317 130.976 149.376 131.329C149.376 131.564 149.611 131.74 149.846 131.74H149.905L150.081 131.153L150.728 130.565V130.271C150.786 129.507 150.14 128.86 149.376 128.86Z" fill="#55696E"/>
<path d="M132.915 137.678C132.915 137.678 133.386 138.913 133.856 138.854C134.268 138.854 134.561 138.736 134.561 138.09C134.561 137.443 134.209 136.62 133.915 136.15C133.621 135.679 132.798 135.092 132.68 135.092C132.21 135.092 132.857 135.856 133.092 136.267C133.386 136.679 133.621 137.149 133.445 137.208C133.209 137.267 132.739 136.502 132.445 136.502C132.151 136.561 132.915 137.678 132.915 137.678Z" fill="#FAB9AF"/>
<path d="M155.783 156.607C155.783 156.607 155.783 155.255 156.195 155.137C156.606 155.02 156.9 155.02 157.077 155.608C157.312 156.196 157.312 157.077 157.194 157.665C157.077 158.194 156.547 159.017 156.43 159.076C156.018 159.252 156.312 158.312 156.43 157.842C156.547 157.371 156.665 156.842 156.371 156.842C156.077 156.842 155.96 157.783 155.666 157.9C155.431 157.9 155.783 156.607 155.783 156.607Z" fill="#FAB9AF"/>
<path d="M146.495 130.447C146.73 130.976 147.259 131.741 148.376 131.682C150.199 131.682 150.257 131.623 150.963 132.387C150.963 132.387 151.08 130.506 150.081 130.212C149.082 129.918 147.142 130.389 146.436 129.389C146.436 129.448 146.319 130.095 146.495 130.447Z" fill="#55696E"/>
<path d="M153.197 136.561C155.078 139.853 157.076 146.907 156.959 155.314C156.959 155.549 156.724 155.784 156.489 155.784C156.253 155.784 156.077 155.608 156.077 155.431C155.666 153.491 154.02 144.615 150.434 138.207C150.022 137.443 150.316 136.502 151.08 136.032C151.845 135.562 152.785 135.855 153.197 136.561Z" fill="#FAB9AF"/>
<path d="M33.3911 142.087L15.4027 144.909C14.9324 144.968 14.5797 145.438 14.6972 145.908L16.2844 155.843C16.3432 156.313 16.8135 156.666 17.2838 156.548L35.2723 153.727C35.7426 153.668 36.0953 153.198 35.9777 152.727L34.3905 142.792C34.2729 142.322 33.8614 142.028 33.3911 142.087Z" fill="#B48255"/>
<path d="M27.5125 134.327L14.4032 136.385C14.0505 136.444 13.8154 136.738 13.8742 137.09L14.9911 144.321C15.0499 144.674 15.3438 144.909 15.6965 144.85L28.8058 142.793C29.1585 142.734 29.3936 142.44 29.3349 142.087L28.2179 134.856C28.1591 134.504 27.8652 134.269 27.5125 134.327Z" fill="#C8A06E"/>
<path d="M11.7579 148.318C13.11 152.316 21.2812 153.256 25.5138 153.197C26.3368 153.197 27.1598 153.197 27.9828 153.197C28.5706 153.197 28.6294 153.962 28.1004 154.079C27.2774 154.256 26.4544 154.373 25.6314 154.55C19.5176 155.725 9.75918 154.843 8.64224 148.788C8.28953 146.731 11.464 146.261 11.7579 148.318Z" fill="#FAB9AF"/>
<path d="M13.5215 150.376C12.0518 149.376 11.8167 148.318 11.8167 148.318V148.377L11.4052 147.378C11.4052 147.378 10.7585 146.613 9.46526 147.201C8.40711 147.613 8.64226 148.906 8.64226 148.906C8.64226 149.082 8.99497 151.14 11.464 152.962C11.3464 152.845 13.6978 150.493 13.5215 150.376Z" fill="#177D74"/>
<path d="M29.0409 153.256C29.0409 153.256 27.7477 152.903 27.5125 153.256C27.2774 153.609 27.2186 153.903 27.6889 154.255C28.2179 154.608 29.0409 154.843 29.6288 154.902C30.1579 154.961 31.1572 154.608 31.216 154.549C31.5099 154.197 30.5106 154.197 30.0403 154.197C29.57 154.197 28.9822 154.138 29.0997 153.903C29.1585 153.668 30.0991 153.785 30.2754 153.55C30.393 153.315 29.0409 153.256 29.0409 153.256Z" fill="#FAB9AF"/>
<path d="M112.693 136.679C112.693 136.679 111.4 136.973 111.341 137.384C111.282 137.796 111.341 138.09 111.988 138.207C112.576 138.266 113.516 138.09 113.987 137.913C114.516 137.678 115.221 136.973 115.221 136.855C115.28 136.385 114.457 136.855 113.987 137.09C113.575 137.325 113.046 137.502 112.987 137.267C112.928 137.031 113.81 136.679 113.869 136.385C113.928 136.032 112.693 136.679 112.693 136.679Z" fill="#FAB9AF"/>
<path d="M96.9385 51.498C96.5858 53.6731 94.5871 64.0194 92.4708 63.6667C90.3545 63.314 90.1782 52.7913 90.5897 50.6162C91.0012 48.4412 92.9411 46.9715 95.0574 47.3242C97.1737 47.6769 97.2912 49.323 96.9385 51.498Z" fill="#0091C8"/>
<path d="M91.1188 59.3752C89.8255 59.3752 80.7137 60.3746 77.1278 61.374C77.3042 62.3145 77.2454 63.3727 77.2454 63.4315C82.1246 63.4903 89.8843 63.9018 91.1776 63.9018C92.7648 63.9018 94.0581 62.8436 94.0581 61.6091C94.0581 60.3746 92.7061 59.3752 91.1188 59.3752Z" fill="#0091C8"/>
<path d="M106.227 41.5044C109.46 40.9166 112.693 38.0361 112.105 38.5064C112.517 38.1536 113.105 38.7415 112.693 39.153C105.286 47.1479 98.6434 43.1504 95.998 36.9779C95.175 34.9792 98.2907 33.8035 98.9373 35.861C100.054 38.9766 102.582 42.0335 106.227 41.5044Z" fill="#FA968C"/>
<path d="M100.407 38.9177C100.76 38.7413 100.877 38.2711 100.642 37.9771C100.054 37.1541 99.1725 35.9196 98.9961 35.5669C98.9374 35.5081 98.9374 35.3906 98.8786 35.3318C98.4671 34.7439 97.7616 34.5088 97.115 34.7439C96.1156 35.0966 95.7041 36.2136 96.2332 37.0366C96.6447 37.742 97.0562 38.3298 97.4677 38.9177C97.7616 39.3292 98.1144 39.6819 98.4083 40.0934C98.5259 39.8583 99.7016 39.3292 100.407 38.9177Z" fill="#39AE96"/>
<path d="M100.466 51.4391L90.4134 52.2621C89.8255 51.6155 90.8249 48.735 90.9424 45.6193C91.0012 42.2097 91.0012 38.4474 90.9424 36.4487C90.9424 35.6257 91.5891 34.9203 92.4121 34.8615L97.4677 34.6264C98.2319 34.5676 98.9373 35.1554 98.9961 35.9197C99.1725 37.5069 99.584 40.2698 99.8779 43.0327C100.231 45.7957 100.466 51.4391 100.466 51.4391Z" fill="#FAB9AF"/>
<path d="M98.9374 35.8608C98.8199 35.0966 98.1732 34.5675 97.4678 34.6263L96.6448 34.6851C96.4096 35.3317 95.8218 35.9196 94.8812 35.9196C93.9406 35.9784 93.294 35.5081 93.0001 34.8614L92.2358 34.9202C91.4716 34.979 90.8838 35.5669 90.8838 36.3311C90.9425 38.3298 90.9425 42.1509 90.8838 45.6192C90.825 48.7937 89.7668 51.439 90.3547 52.262L100.936 51.4978C100.936 51.4978 100.231 45.7956 99.878 43.0327C99.5253 40.2697 99.1138 37.448 98.9374 35.8608Z" fill="#55C7A6"/>
<path d="M95.1162 33.2156H94.9986C94.2932 33.3332 93.5877 32.8041 93.529 32.0399L93.2938 30.0999L94.7047 29.9236L95.1162 33.2156Z" fill="#965028"/>
<path d="M95.9392 35.3904L93.5878 35.214L93.4702 34.8613L94.8811 32.3335L96.5859 33.0389L95.9392 35.3904Z" fill="#FAB9AF"/>
<path d="M96.5858 33.0389L94.9398 32.3335L94.3519 33.3329C94.5871 33.8619 94.9398 34.5086 95.5276 34.6849C95.704 34.7437 95.9391 34.7437 96.1155 34.6849L96.5858 33.0389Z" fill="#FA968C"/>
<path d="M96.4684 34.2147C95.2927 34.3323 94.1757 33.5093 93.9994 32.2748L93.7054 29.8646L97.4677 29.3943C97.4677 29.3943 97.7029 31.2754 97.5853 32.6275C97.4677 33.5681 97.0562 34.0972 96.4684 34.2147Z" fill="#FAB9AF"/>
<path d="M94.3263 30.7063L93.626 30.7913L93.6614 31.083L94.3617 30.998L94.3263 30.7063Z" fill="#965028"/>
<path d="M94.5871 31.7457C94.6459 32.216 94.4696 32.6275 94.1757 32.6863C93.8817 32.7451 93.529 32.1572 93.4702 31.6869C93.4114 31.2166 93.7054 31.0403 93.9993 30.9815C94.2344 30.9227 94.5284 31.2754 94.5871 31.7457Z" fill="#FAB9AF"/>
<path d="M97.8203 30.3349C97.8791 30.041 97.8791 29.6882 97.7616 29.3943C97.7616 29.3943 97.644 28.3362 97.1737 28.1598C96.7622 28.0422 96.1155 28.3362 95.704 28.4537C95.4101 28.5713 94.4696 28.6301 94.4696 28.6301C93.7053 28.7477 93.1763 29.3943 93.235 30.1585L93.2938 30.4525L93.9993 30.9227L94.2344 31.4518H94.2932C94.5283 31.4518 94.7047 31.2167 94.7047 30.9815C94.7047 30.57 94.9398 30.2173 95.2925 30.1585L96.4095 30.041C97.1149 29.9822 97.4676 30.2761 97.5264 30.8052V31.2167L97.8203 30.3349Z" fill="#965028"/>
<path d="M93.4702 36.5073C94.1168 40.152 97.1737 43.2677 100.701 45.1488C102.993 46.4421 106.521 46.9712 108.108 47.2651H108.167C108.696 47.3827 108.637 48.1469 108.108 48.1469C102.229 48.2645 99.8778 47.2651 97.2912 45.9718C93.1762 43.6792 90.766 39.7993 90.2957 36.6837C90.0606 34.8613 92.9411 33.9207 93.4702 36.5073Z" fill="#FAB9AF"/>
<path d="M127.566 77.5986V124.039H105.051V77.5986H127.566ZM128.095 77.0696H104.522V124.51H128.095V77.0696Z" fill="#B9CDD2"/>
<path d="M94.5284 39.0354C93.8229 37.507 93.4702 36.1549 93.4702 36.1549V36.2137L93.0587 35.3319C92.9999 35.2731 92.9412 35.1556 92.8824 35.1556C92.6472 34.9792 92.0006 34.6853 91.06 35.1556C90.0019 35.6259 90.2958 36.8604 90.2958 36.8604C90.3546 37.0367 90.237 38.1536 91.5303 40.3287C91.7067 40.5639 92.0594 40.6814 92.2945 40.5639C93.0587 40.0936 94.5872 39.2118 94.5284 39.0354Z" fill="#39AE96"/>
<path d="M133.797 72.0142H108.578V99.3496H133.797V72.0142Z" fill="#B9CDD2"/>
<path d="M132.151 39.0354H108.578V96.0577H132.151V39.0354Z" fill="white"/>
<path d="M109.107 48.4999C109.107 48.4999 108.696 47.2654 108.284 47.2654C107.873 47.2654 107.579 47.3242 107.579 47.9708C107.579 48.6175 107.814 49.4405 108.108 49.9107C108.402 50.381 109.166 51.0277 109.284 51.0277C109.754 51.0865 109.166 50.2635 108.931 49.852C108.696 49.4405 108.402 48.9702 108.637 48.8526C108.872 48.7938 109.284 49.6168 109.578 49.6168C109.813 49.6756 109.107 48.4999 109.107 48.4999Z" fill="#FAB9AF"/>
<path d="M112.047 39.094C111.929 38.6825 111.988 38.3886 112.576 38.2122C113.164 38.0358 114.104 38.0946 114.633 38.271C115.162 38.4473 115.926 39.0352 115.985 39.1528C116.103 39.6231 115.221 39.2116 114.751 39.094C114.28 38.9176 113.693 39.094 113.693 39.094C113.693 39.3291 114.633 39.5055 114.692 39.7994C114.751 40.0933 112.164 39.5055 112.047 39.094Z" fill="#FA968C"/>
<path d="M164.483 80.0679H135.326V86.064H164.483V80.0679Z" fill="#C8E6EB"/>
<path d="M164.483 90.7668H135.326V96.763H164.483V90.7668Z" fill="#B4D7DC"/>
<path d="M164.483 101.525H135.326V107.521H164.483V101.525Z" fill="#C8E6EB"/>
<path d="M164.483 112.224H135.326V118.22H164.483V112.224Z" fill="#B4D7DC"/>
<path d="M92.8824 86.064H89.3553C87.7092 86.064 86.3572 84.712 86.3572 83.066C86.3572 81.4199 87.7092 80.0679 89.3553 80.0679H92.8824C94.5284 80.0679 95.8805 81.4199 95.8805 83.066C95.8805 84.712 94.5284 86.064 92.8824 86.064Z" fill="#C8E6EB"/>
<path d="M92.8824 96.763H89.3553C87.7092 96.763 86.3572 95.4109 86.3572 93.7649C86.3572 92.1189 87.7092 90.7668 89.3553 90.7668H92.8824C94.5284 90.7668 95.8805 92.1189 95.8805 93.7649C95.8805 95.4109 94.5284 96.763 92.8824 96.763Z" fill="#B4D7DC"/>
<path d="M92.8824 107.462H89.3553C87.7092 107.462 86.3572 106.11 86.3572 104.464C86.3572 102.818 87.7092 101.466 89.3553 101.466H92.8824C94.5284 101.466 95.8805 102.818 95.8805 104.464C95.8805 106.11 94.5284 107.462 92.8824 107.462Z" fill="#C8E6EB"/>
<path d="M92.8824 118.161H89.3553C87.7092 118.161 86.3572 116.809 86.3572 115.163C86.3572 113.517 87.7092 112.165 89.3553 112.165H92.8824C94.5284 112.165 95.8805 113.517 95.8805 115.163C95.8805 116.868 94.5284 118.161 92.8824 118.161Z" fill="#B4D7DC"/>
<path d="M193.935 144.732C196.463 141.323 197.756 137.149 197.698 132.857C197.698 132.622 197.698 132.387 197.698 132.152C197.698 120.512 202.165 111.107 207.75 111.107C213.041 111.107 216.921 119.219 217.626 128.86C217.979 133.21 219.625 137.325 222.623 140.5C224.857 142.91 226.326 146.319 226.326 150.141C226.326 157.312 221.271 163.191 215.098 163.191C213.452 163.191 211.865 162.779 210.454 162.015C207.338 160.369 203.811 159.723 200.284 159.899C200.167 159.899 200.049 159.899 199.931 159.899C195.581 159.899 192.113 155.784 192.113 150.728C192.054 148.436 192.76 146.319 193.935 144.732Z" fill="#1C9585"/>
<path d="M208.161 126.45V179.592" stroke="#177D74" stroke-width="1.7919" stroke-miterlimit="10"/>
<path d="M218.919 146.731L208.161 157.841L197.639 150.728" stroke="#177D74" stroke-width="1.7919" stroke-miterlimit="10"/>
<path d="M204.282 138.148L208.161 142.087L211.336 138.148" stroke="#177D74" stroke-width="1.7919" stroke-miterlimit="10"/>
<path d="M191.466 152.316C191.172 149.905 189.115 147.319 186.293 146.202C186.117 146.143 185.999 146.084 185.823 146.025C181.943 144.556 177.945 144.615 174.712 145.32C171.479 145.967 168.892 147.26 168.011 146.378C167.188 145.732 168.128 142.792 171.244 140.264C174.242 137.737 179.474 135.679 185.059 136.737C190.055 137.501 194.582 139.383 198.403 141.146C201.283 142.439 204.928 145.79 206.633 150.787C210.101 160.604 203.517 169.363 201.166 167.776C200.519 167.482 200.108 166.718 199.814 165.66C199.167 163.308 197.639 162.544 196.11 162.368C196.052 162.368 195.993 162.368 195.993 162.368C194.17 161.839 193.406 158.664 192.407 155.96C191.937 154.608 191.643 153.432 191.466 152.316Z" fill="#39AE96"/>
<path d="M178.181 140.911C178.181 140.911 193.053 139.971 199.344 152.198C205.634 164.426 202.048 174.772 202.048 174.772" stroke="#1C9585" stroke-width="1.7919" stroke-miterlimit="10"/>
<path d="M220.8 174.302C221.094 175.477 221.271 176.712 221.271 177.946C221.271 186.353 214.451 193.113 206.104 193.113C197.697 193.113 190.937 186.294 190.937 177.946C190.937 176.712 191.113 175.477 191.407 174.302H220.8Z" fill="#FAC855"/>
<path d="M216.156 196.052H194.112C193.524 196.052 192.995 195.582 192.995 194.935V194.348C192.995 193.76 193.465 193.231 194.112 193.231H216.156C216.744 193.231 217.273 193.701 217.273 194.348V194.935C217.273 195.523 216.744 196.052 216.156 196.052Z" fill="white"/>
<path d="M109.284 126.92C109.284 126.92 110.401 129.624 108.813 133.857L119.042 137.09L109.284 126.92Z" fill="#A5C8CD"/>
</svg>
