<svg width="25" height="20" viewBox="0 0 25 20" fill="none" xmlns="http://www.w3.org/2000/svg">
<path d="M23.5 1.00029C22.5424 1.67577 21.4821 2.1924 20.36 2.53029C19.7577 1.8378 18.9573 1.34698 18.067 1.12422C17.1767 0.90145 16.2395 0.957486 15.3821 1.28474C14.5247 1.612 13.7884 2.19469 13.273 2.95401C12.7575 3.71332 12.4877 4.61263 12.5 5.53029V6.53029C10.7426 6.57586 9.00127 6.1861 7.43101 5.39574C5.86074 4.60537 4.51032 3.43893 3.5 2.00029C3.5 2.00029 -0.5 11.0003 8.5 15.0003C6.44053 16.3983 3.98716 17.0992 1.5 17.0003C10.5 22.0003 21.5 17.0003 21.5 5.50029C21.4991 5.22174 21.4723 4.94388 21.42 4.67029C22.4406 3.66378 23.1608 2.393 23.5 1.00029Z" stroke="#303550" stroke-width="2" stroke-linecap="round" stroke-linejoin="round"/>
</svg>
